<svg width="25" height="19" viewBox="0 0 25 19" fill="none" xmlns="http://www.w3.org/2000/svg">
<path d="M7.58885 10.0208H9.36948L8.47917 7.45685L7.58885 10.0208ZM16.9583 9.25C16.3209 9.25 15.8021 9.76887 15.8021 10.4062C15.8021 11.0436 16.3209 11.5625 16.9583 11.5625C17.5957 11.5625 18.1146 11.0436 18.1146 10.4062C18.1146 9.76887 17.5957 9.25 16.9583 9.25ZM22.3542 0H2.3125C1.03581 0 0 1.03581 0 2.3125V16.1875C0 17.4642 1.03581 18.5 2.3125 18.5H22.3542C23.6309 18.5 24.6667 17.4642 24.6667 16.1875V2.3125C24.6667 1.03581 23.6309 0 22.3542 0ZM12.0722 13.875H11.2561C10.928 13.875 10.6356 13.6669 10.5277 13.3571L10.1726 12.3333H6.78622L6.43068 13.3571C6.37812 13.5084 6.27973 13.6396 6.14918 13.7324C6.01864 13.8252 5.86242 13.8751 5.70224 13.875H4.88612C4.35569 13.875 3.98376 13.3523 4.15768 12.8512L6.74479 5.40161C6.82361 5.17475 6.97113 4.97807 7.16686 4.8389C7.36259 4.69972 7.5968 4.62496 7.83697 4.625H9.12137C9.3616 4.62496 9.59587 4.69978 9.79161 4.83905C9.98735 4.97832 10.1348 5.17512 10.2135 5.4021L12.8002 12.8512C12.9741 13.3523 12.6022 13.875 12.0722 13.875ZM20.4271 13.1042C20.4271 13.5301 20.0821 13.875 19.6562 13.875H18.8854C18.6518 13.875 18.4499 13.7656 18.3083 13.6014C17.893 13.7777 17.4367 13.875 16.9583 13.875C15.0457 13.875 13.4896 12.3189 13.4896 10.4062C13.4896 8.49362 15.0457 6.9375 16.9583 6.9375C17.3659 6.9375 17.7513 7.02085 18.1146 7.15044V5.39583C18.1146 4.96995 18.4595 4.625 18.8854 4.625H19.6562C20.0821 4.625 20.4271 4.96995 20.4271 5.39583V13.1042Z" fill="#809FB8"/>
</svg>
