<svg width="64" height="64" viewBox="0 0 64 64" fill="none" xmlns="http://www.w3.org/2000/svg">
<g clip-path="url(#clip0_1497_8490)">
<path d="M8.0499 3.77002C6.5899 3.77002 5.3999 4.96002 5.3999 6.42002C5.3999 7.88002 6.5899 9.07002 8.0499 9.07002C9.50991 9.07002 10.6999 7.88002 10.6999 6.42002C10.6999 4.96002 9.50991 3.77002 8.0499 3.77002ZM8.0499 7.56002C7.4199 7.56002 6.8999 7.05002 6.8999 6.41002C6.8999 5.77002 7.4199 5.26002 8.0499 5.26002C8.6899 5.26002 9.1999 5.76002 9.1999 6.41002C9.1999 7.05002 8.6799 7.56002 8.0499 7.56002Z" fill="#FF7203"/>
<path d="M15.89 3.77002C14.43 3.77002 13.24 4.96002 13.24 6.42002C13.24 7.88002 14.43 9.07002 15.89 9.07002C17.35 9.07002 18.54 7.88002 18.54 6.42002C18.54 4.96002 17.35 3.77002 15.89 3.77002ZM15.89 7.56002C15.26 7.56002 14.74 7.05002 14.74 6.42002C14.74 5.79002 15.26 5.27002 15.89 5.27002C16.53 5.27002 17.04 5.77002 17.04 6.42002C17.04 7.05002 16.52 7.56002 15.89 7.56002Z" fill="#FF7203"/>
<path d="M23.7301 3.77002C22.2701 3.77002 21.0801 4.96002 21.0801 6.42002C21.0801 7.88002 22.2701 9.07002 23.7301 9.07002C25.1901 9.07002 26.3801 7.88002 26.3801 6.42002C26.3801 4.96002 25.1901 3.77002 23.7301 3.77002ZM23.7301 7.56002C23.1001 7.56002 22.5801 7.05002 22.5801 6.41002C22.5801 5.77002 23.1001 5.26002 23.7301 5.26002C24.3701 5.26002 24.8801 5.76002 24.8801 6.41002C24.8801 7.05002 24.3601 7.56002 23.7301 7.56002Z" fill="#FF7203"/>
<path d="M63.47 9.46V3.97C63.47 1.78 61.69 0 59.5 0H3.96C1.78 0 0 1.78 0 3.96V12.09V12.1V39.44C0 41.63 1.78 43.41 3.97 43.41H5.95C6.36 43.41 6.7 43.07 6.7 42.66C6.7 42.25 6.36 41.91 5.95 41.91H3.98C2.62 41.91 1.51 40.8 1.51 39.44V12.84H28.2C28.45 12.84 28.69 12.81 28.92 12.74C29.3 12.64 29.64 12.44 29.94 12.19C30.19 11.98 30.43 11.74 30.59 11.44L30.76 11.14L30.93 10.86C31.15 10.47 31.56 10.23 32.01 10.23H61.97V39.45C61.97 40.81 60.86 41.92 59.5 41.92H57.45C57.04 41.92 56.7 42.26 56.7 42.67C56.7 43.08 57.04 43.42 57.45 43.42H59.5C61.69 43.42 63.47 41.64 63.47 39.45V9.46ZM1.5 11.34V3.96C1.5 2.6 2.6 1.5 3.96 1.5H59.5C60.86 1.5 61.97 2.61 61.97 3.97V8.72H32.01C31.02 8.72 30.1 9.26 29.62 10.12L29.44 10.44L29.28 10.7C29.06 11.09 28.65 11.33 28.2 11.33H1.5V11.34Z" fill="#FF7203"/>
<path d="M21.06 43.2498L17.61 44.7698C17.23 44.9398 17.06 45.3798 17.23 45.7598C17.35 46.0398 17.63 46.2098 17.92 46.2098C18.02 46.2098 18.12 46.1898 18.22 46.1498L21.67 44.6298C22.05 44.4598 22.22 44.0198 22.05 43.6398C21.88 43.2498 21.43 43.0798 21.06 43.2498Z" fill="#FF7203"/>
<path d="M19.55 37.9801C19.38 37.6001 18.94 37.4301 18.56 37.6001L15.11 39.1201C14.73 39.2901 14.56 39.7301 14.73 40.1101C14.85 40.3901 15.13 40.5601 15.42 40.5601C15.52 40.5601 15.62 40.5401 15.72 40.5001L19.17 38.9801C19.55 38.8001 19.72 38.3501 19.55 37.9801Z" fill="#FF7203"/>
<path d="M20.8 40.7999C20.63 40.4199 20.19 40.2499 19.81 40.4199L16.36 41.9399C15.98 42.1099 15.81 42.5499 15.98 42.9299C16.1 43.2099 16.38 43.3799 16.67 43.3799C16.77 43.3799 16.87 43.3599 16.97 43.3199L20.42 41.7999C20.79 41.6299 20.96 41.1799 20.8 40.7999Z" fill="#FF7203"/>
<path d="M50.1599 33.78C52.4499 32.37 53.4099 29.45 52.2899 26.92C51.1699 24.39 48.3699 23.13 45.7899 23.87L41.8899 15.04C41.5799 14.34 41.0199 13.81 40.3099 13.53C39.5999 13.25 38.8299 13.27 38.1299 13.58C36.6899 14.21 36.0399 15.9 36.6699 17.34L36.7399 17.49C32.6099 25.83 26.9799 30.95 23.9599 33.27C23.6299 33.52 23.5699 33.99 23.8199 34.32C24.0699 34.65 24.5399 34.71 24.8699 34.46C27.8499 32.17 33.3199 27.23 37.5199 19.27L46.0999 38.73L47.9899 43.01C36.6699 40.05 27.8299 42.06 25.4099 42.73L22.2299 35.53C21.5599 34 19.7599 33.3 18.2299 33.98L12.6299 36.45C11.8899 36.78 11.3199 37.37 11.0299 38.13C10.7399 38.89 10.7599 39.71 11.0799 40.45L11.2999 40.95L10.3699 41.36C9.34984 41.81 8.88984 43.01 9.33984 44.03L10.7099 47.14C11.0399 47.9 11.7899 48.35 12.5599 48.35C12.8299 48.35 13.1099 48.3 13.3699 48.18L14.2999 47.77L14.5199 48.27C14.8499 49.01 15.4399 49.58 16.1999 49.87C16.5599 50.01 16.9299 50.08 17.2999 50.08C17.7199 50.08 18.1299 49.99 18.5199 49.82L23.5699 47.59L30.3499 57.06C31.0399 58.03 32.3399 58.38 33.4199 57.9L33.6199 57.81C34.0599 57.61 34.5899 57.76 34.8699 58.15C35.0499 58.4 35.1099 58.72 35.0299 59.02C34.9499 59.32 34.7399 59.56 34.4499 59.69L29.3299 61.95C28.8899 62.15 28.3599 62 28.0799 61.61L20.8799 51.57C20.6399 51.23 20.1699 51.16 19.8299 51.4C19.4899 51.64 19.4199 52.11 19.6599 52.45L26.8599 62.5C27.3499 63.18 28.1199 63.55 28.9199 63.55C29.2599 63.55 29.6099 63.48 29.9299 63.34L35.0499 61.08C35.7499 60.77 36.2699 60.17 36.4699 59.43C36.6699 58.69 36.5299 57.91 36.0899 57.29C35.3999 56.32 34.0999 55.97 33.0199 56.45L32.8199 56.54C32.3799 56.74 31.8499 56.59 31.5699 56.2L28.3499 51.71L28.7199 51.55C29.3399 51.28 29.7899 50.75 29.9599 50.11C30.1299 49.46 30.0099 48.78 29.6099 48.24L28.9699 47.36C28.8599 47.2 28.8199 47.01 28.8499 46.82C28.8899 46.63 28.9999 46.46 29.1599 46.35L29.6199 46.05C30.5199 45.47 30.8699 44.33 30.4499 43.33C34.7299 42.8 41.2699 42.65 48.7599 44.81L48.8299 44.96C49.1399 45.66 49.6999 46.19 50.4099 46.47C50.7399 46.6 51.0899 46.66 51.4399 46.66C51.8299 46.66 52.2199 46.58 52.5899 46.42C53.2899 46.11 53.8199 45.55 54.0999 44.84C54.3699 44.13 54.3599 43.36 54.0499 42.66L50.1599 33.78ZM50.9199 27.52C51.6999 29.29 51.0799 31.33 49.5499 32.39L46.3999 25.24C48.2199 24.83 50.1399 25.75 50.9199 27.52ZM12.7799 46.77C12.5199 46.89 12.2099 46.77 12.0899 46.5L10.7199 43.39C10.5999 43.13 10.7199 42.82 10.9899 42.7L11.9199 42.29L13.7099 46.35L12.7799 46.77ZM17.9199 48.41C17.5399 48.58 17.1299 48.58 16.7499 48.44C16.3699 48.29 16.0699 48 15.8999 47.63L14.1799 43.73L12.9799 41.01L12.4599 39.82C12.2899 39.45 12.2899 39.03 12.4299 38.65C12.5799 38.27 12.8699 37.97 13.2399 37.8L18.8399 35.33C19.0399 35.24 19.2499 35.2 19.4599 35.2C20.0499 35.2 20.6099 35.54 20.8599 36.11L24.2999 43.92C24.6399 44.69 24.2899 45.6 23.5199 45.94L17.9199 48.41ZM29.0899 43.86C29.2299 44.18 29.1199 44.56 28.8299 44.75L28.3599 45.06C27.8599 45.39 27.4999 45.92 27.3899 46.51C27.2799 47.11 27.4099 47.71 27.7699 48.2L28.4099 49.08C28.5799 49.32 28.5499 49.55 28.5199 49.67C28.4599 49.88 28.3199 50.04 28.1199 50.13L27.4699 50.42L24.8899 46.82C25.6499 46.15 26.0399 45.15 25.8999 44.14C26.5199 43.98 27.5499 43.73 28.9299 43.5L29.0899 43.86ZM52.7099 44.25C52.5799 44.59 52.3299 44.85 51.9999 45C51.6699 45.15 51.2999 45.15 50.9699 45.02C50.6299 44.89 50.3699 44.64 50.2199 44.31L44.1399 30.51L38.2699 17.19L38.0599 16.72C37.7599 16.04 38.0699 15.24 38.7499 14.94C38.9199 14.86 39.1099 14.82 39.2899 14.82C39.4599 14.82 39.6199 14.85 39.7799 14.91C40.1199 15.04 40.3799 15.29 40.5299 15.62L52.6999 43.2C52.8299 43.54 52.8399 43.91 52.7099 44.25Z" fill="#FF7203"/>
<path d="M13.75 31.56C18.11 31.56 21.66 28.01 21.66 23.65C21.66 19.29 18.11 15.75 13.75 15.75H13.41C9.05 15.75 5.5 19.3 5.5 23.66C5.5 28.02 9.05 31.57 13.41 31.57H13.75V31.56ZM7.01 23.66C7.01 20.13 9.88 17.25 13.42 17.25H13.76C17.29 17.25 20.17 20.12 20.17 23.66C20.17 27.2 17.3 30.07 13.76 30.07H13.42C9.88 30.06 7.01 27.19 7.01 23.66Z" fill="#FF7203"/>
<path d="M16.7999 25.1398C17.2899 24.7998 17.5699 24.2398 17.5699 23.6498C17.5699 23.0598 17.2799 22.4998 16.7999 22.1698L13.7399 20.0298C13.1799 19.6398 12.4599 19.5898 11.8599 19.9098C11.2599 20.2198 10.8799 20.8398 10.8799 21.5198V25.7998C10.8799 26.4798 11.2499 27.0898 11.8599 27.4098C12.1199 27.5498 12.4099 27.6198 12.6999 27.6198C13.0599 27.6198 13.4299 27.5098 13.7399 27.2898L16.7999 25.1398ZM12.5499 26.0798C12.4899 26.0498 12.3799 25.9698 12.3799 25.7998V21.5198C12.3799 21.3498 12.4899 21.2698 12.5499 21.2398C12.5799 21.2198 12.6299 21.1998 12.6999 21.1998C12.7499 21.1998 12.8099 21.2098 12.8799 21.2598L15.9399 23.3998C16.0599 23.4798 16.0699 23.5998 16.0699 23.6598C16.0699 23.7198 16.0499 23.8398 15.9399 23.9198L12.8799 26.0598C12.7399 26.1498 12.6199 26.1098 12.5499 26.0798Z" fill="#FF7203"/>
</g>
<defs>
<clipPath id="clip0_1497_8490">
<rect width="64" height="64" fill="white"/>
</clipPath>
</defs>
</svg>
