<svg width="46" height="33" viewBox="0 0 46 33" fill="none" xmlns="http://www.w3.org/2000/svg">
<path d="M39.9524 0.5723H5.92567C2.96845 0.5723 0.571289 2.96963 0.571289 5.92669V26.9396C0.571289 29.8968 2.96861 32.2939 5.92567 32.2939H39.9524C42.9097 32.2939 45.3068 29.8966 45.3068 26.9396V5.92685C45.3068 2.96963 42.9095 0.5723 39.9524 0.5723Z" fill="#FC6F58"/>
<path d="M39.9525 32.2939H22.9844V0.5723H39.9525C42.9097 0.5723 45.3069 2.96963 45.3069 5.92669V26.9396C45.3069 29.8966 42.9095 32.2939 39.9525 32.2939Z" fill="#FC6F58"/>
<path d="M45.3068 26.7358H0.571289V19.1444H45.3068V26.7358Z" fill="#324A5E"/>
<path d="M45.3071 26.7358H22.9854V19.1444H45.3071V26.7358Z" fill="#2B3B4E"/>
</svg>
