<?xml version="1.0" encoding="utf-8"?>
<!-- Generator: Adobe Illustrator 18.1.1, SVG Export Plug-In . SVG Version: 6.00 Build 0)  -->
<svg version="1.1" id="Layer_1" xmlns="http://www.w3.org/2000/svg" xmlns:xlink="http://www.w3.org/1999/xlink" x="0px" y="0px"
	 viewBox="0 0 64 64" enable-background="new 0 0 64 64" xml:space="preserve">
<text transform="matrix(1 0 0 1 -105.5 8)"><tspan x="0" y="0" font-family="'MyriadPro-Regular'" font-size="12">Donation</tspan><tspan x="0" y="14.4" font-family="'MyriadPro-Regular'" font-size="12"> 2.Product for Sale</tspan><tspan x="0" y="28.8" font-family="'MyriadPro-Regular'" font-size="12"> 3.Manage Addresses </tspan><tspan x="0" y="43.2" font-family="'MyriadPro-Regular'" font-size="12"> 4.Order</tspan><tspan x="0" y="57.6" font-family="'MyriadPro-Regular'" font-size="12"> 5.Wishlist</tspan><tspan x="0" y="72" font-family="'MyriadPro-Regular'" font-size="12"> 6.Notification</tspan></text>
<g>
	<path fill="#6382FF" d="M24.6,17.5c-1.7-4.9-0.8-9,3.6-12c3.2-2.1,7.4-1.9,10.5,0.5c1.8,1.3,2.9,3.1,3.4,5.2
		c0.5,2.1,0.3,4.2-0.7,6.3c0.6,0,1.1,0,1.6,0c2.7,0,4.5,0,7.2,0c0.5,0,0.8,0.1,1.1,0.5c1.8,2.5,3.6,5,5.4,7.5
		c0.2,0.2,0.3,0.6,0.3,0.9c0,1.8,0,3.6,0,5.4c0,0.7-0.2,0.9-0.9,0.9c-1,0-1,0-1,1.1c0,8.3,0,13.2,0,21.5c0,0.9-0.2,1.1-1.1,1.1
		c-14.7,0-27.3,0-42,0c-0.9,0-1.1-0.2-1.1-1.1c0-8.5,0-13.5,0-22c0-0.4-0.1-0.5-0.5-0.5c-1.5,0-1.5,0-1.5-1.4c0-1.6,0-3.2,0-4.7
		c0-0.4,0.1-0.8,0.4-1.1c1.8-2.5,3.6-4.9,5.4-7.4c0.3-0.4,0.5-0.5,1-0.5c3.1,0,5.2,0,8.3,0C24.2,17.5,24.4,17.5,24.6,17.5z
		 M53.7,32.7c-0.3,0-0.5,0-0.6,0c-8.1,0-15.1,0-23.2,0c-6,0-10.9,0-16.8,0c-0.4,0-0.6,0-0.6,0.5c0,8.2,0,13,0,21.1
		c0,0.2,0,0.4,0,0.5c14.5,0,26.9,0,41.3,0C53.7,46.3,53.7,41.2,53.7,32.7z M55.7,26.8c-15.8,0-29.5,0-45.2,0c0,1.5,0,2.9,0,4.4
		c15.8,0,29.5,0,45.2,0C55.7,29.7,55.7,28.3,55.7,26.8z M28.1,21.4c-0.8-0.8-1.6-1.6-2.4-2.3c-0.1-0.1-0.4-0.2-0.6-0.2
		c-3.3,0-5.6,0-8.9,0c-0.3,0-0.5,0.1-0.6,0.3c-1.4,1.9-2.8,3.8-4.2,5.8c-0.1,0.1-0.2,0.2-0.3,0.4c15.3,0,28.5,0,43.8,0
		c-0.1-0.2-0.2-0.3-0.3-0.4c-1.4-1.9-2.8-3.8-4.1-5.7c-0.2-0.3-0.4-0.3-0.7-0.3c-3.1,0-5.2,0-8.3,0c-0.6,0-1,0.1-1.5,0.6
		c-0.6,0.7-1.4,1.3-2.1,1.9c1,0,2.1,0,3.1,0c0.7,0,1.1,0.2,1.1,0.7c0,0.5-0.3,0.7-1.1,0.7c-5.4,0-10.8,0-16.1,0c-0.2,0-0.3,0-0.5,0
		c-0.4-0.1-0.6-0.3-0.6-0.7c0-0.4,0.2-0.6,0.6-0.7c0.2,0,0.4,0,0.6,0C26.1,21.4,27.1,21.4,28.1,21.4z M33.1,5.6
		c-4.3,0-7.8,3.5-7.8,7.8c0,4.3,3.5,7.8,7.8,7.8c4.3,0,7.8-3.5,7.8-7.8C40.9,9.1,37.4,5.6,33.1,5.6z"/>
	<path fill="#6382FF" d="M33.6,18c0,0.4,0,0.7,0,1.1c-0.2,0-0.4,0-0.7,0c0,0,0,0,0-0.1c0-0.3,0-0.7,0-1c0,0,0-0.1-0.1-0.1
		c-0.3,0-0.7-0.1-1-0.2c-0.5-0.2-0.9-0.5-1.1-0.9c-0.2-0.4-0.4-0.7-0.4-1.2c0-0.1,0-0.2,0-0.3c0.4-0.1,0.7-0.1,1.1-0.2
		c0,0.1,0,0.2,0,0.2c0.1,0.3,0.1,0.6,0.3,0.9c0.3,0.4,0.6,0.7,1.1,0.8c0,0,0.1,0,0.1,0c0,0,0,0,0,0c0,0,0,0,0-0.1c0-1.1,0-2.3,0-3.4
		c0,0,0-0.1-0.1-0.1c-0.5-0.1-1-0.3-1.4-0.6c-0.5-0.3-0.8-0.7-0.9-1.2c-0.2-0.6-0.1-1.1,0.1-1.7c0.3-0.7,0.8-1.2,1.5-1.4
		c0.2-0.1,0.5-0.1,0.7-0.1c0,0,0.1,0,0.1-0.1c0-0.1,0-0.3,0-0.4c0,0,0,0,0-0.1c0.2,0,0.4,0,0.7,0c0,0.2,0,0.3,0,0.5
		c0.1,0,0.2,0,0.3,0c0.4,0.1,0.9,0.2,1.2,0.5c0.4,0.3,0.7,0.8,0.8,1.3c0,0.1,0,0.2,0.1,0.3c0,0,0,0,0,0c-0.4,0.1-0.8,0.1-1.1,0.2
		c0-0.2-0.1-0.4-0.1-0.5c-0.2-0.5-0.6-0.8-1.1-0.9c0,0,0,0,0,0c0,1.1,0,2.1,0,3.2c0.1,0,0.2,0,0.3,0.1c0.3,0.1,0.5,0.1,0.8,0.2
		c0.5,0.2,0.9,0.5,1.1,0.9c0.2,0.4,0.4,0.8,0.4,1.2c0,0.8-0.1,1.5-0.7,2c-0.4,0.4-0.9,0.7-1.5,0.8C34,17.9,33.8,17.9,33.6,18
		C33.7,18,33.7,18,33.6,18z M33.6,17C33.6,17,33.7,17,33.6,17C33.7,17,33.7,17,33.6,17c0.6-0.1,1.1-0.4,1.3-1
		c0.2-0.4,0.2-0.7,0.1-1.1c-0.1-0.4-0.3-0.7-0.6-0.9c-0.2-0.1-0.5-0.3-0.8-0.3c0,0-0.1,0-0.1,0C33.6,14.8,33.6,15.9,33.6,17z
		 M33,9.4c-0.1,0-0.2,0-0.3,0.1c-0.4,0.1-0.8,0.4-1,0.8c-0.1,0.3-0.2,0.5-0.1,0.8c0,0.3,0.2,0.6,0.4,0.9c0.2,0.2,0.4,0.3,0.6,0.4
		c0.1,0,0.2,0.1,0.3,0.1C33,11.5,33,10.4,33,9.4z"/>
</g>
<g>
	<path fill="#6382FF" d="M15.3,45.1c-0.1,0-0.3-0.1-0.4-0.2c-0.2-0.2-0.1-0.5,0.1-0.7l11.8-9.6c0.2-0.2,0.5-0.1,0.7,0.1
		c0.2,0.2,0.1,0.5-0.1,0.7L15.6,45C15.5,45,15.4,45.1,15.3,45.1z"/>
</g>
<g>
	<path fill="#6382FF" d="M18.5,53.1c-0.1,0-0.3-0.1-0.4-0.2c-0.2-0.2-0.1-0.5,0.1-0.7l23-18.3c0.2-0.2,0.5-0.1,0.7,0.1
		c0.2,0.2,0.1,0.5-0.1,0.7L18.8,53C18.7,53,18.6,53.1,18.5,53.1z"/>
</g>
</svg>
