<svg width="46" height="46" viewBox="0 0 46 46" fill="none" xmlns="http://www.w3.org/2000/svg">
<path d="M22.8101 45.6201H4.27689C4.02384 44.1557 3.29124 42.3481 2.50234 40.4015C1.31496 37.4721 0 34.2277 0 31.3638C2.15368 28.6963 5.9659 27.7655 9.55795 26.8884C11.1073 26.5101 12.6157 26.1418 13.9323 25.6485C14.0835 25.8185 14.2239 26.7014 14.3535 28.2972C14.4831 29.893 14.6667 31.7108 14.9043 33.7504C15.1419 35.7901 15.4335 37.1416 15.7791 38.1615C15.9303 38.6148 16.2435 38.9925 16.7187 39.2946C17.194 39.5968 17.6044 39.7857 17.95 39.8612C18.2401 39.9247 18.4846 39.9214 18.6835 39.9186C18.7214 39.9181 18.7577 39.9176 18.7924 39.9176H22.8101V39.9304H26.8278C26.8624 39.9304 26.8987 39.931 26.9366 39.9314C27.1355 39.9342 27.38 39.9375 27.6701 39.874C28.0157 39.7985 28.4262 39.6096 28.9014 39.3074C29.3766 39.0053 29.6898 38.6276 29.841 38.1743C30.1866 37.1545 30.4783 35.803 30.7158 33.7633C30.9534 31.7236 31.1371 29.9059 31.2666 28.3101C31.3963 26.7142 31.5366 25.8313 31.6878 25.6613C33.0045 26.1547 34.5129 26.5229 36.0622 26.9013C39.6542 27.7783 43.4664 28.7091 45.6201 31.3767C45.6201 34.2406 44.3052 37.485 43.1178 40.4144C42.3293 42.3598 41.5972 44.1663 41.3432 45.633H22.8101V45.6201ZM24.2357 37.0664C24.2357 37.8537 23.5975 38.492 22.8101 38.492C22.0227 38.492 21.3844 37.8537 21.3844 37.0664C21.3844 36.279 22.0227 35.6407 22.8101 35.6407C23.5975 35.6407 24.2357 36.279 24.2357 37.0664ZM22.8101 34.2151C23.5975 34.2151 24.2357 33.5769 24.2357 32.7895C24.2357 32.0021 23.5975 31.3638 22.8101 31.3638C22.0227 31.3638 21.3844 32.0021 21.3844 32.7895C21.3844 33.5769 22.0227 34.2151 22.8101 34.2151ZM22.8101 25.6613L17.1075 24.2357V29.9382L22.8101 28.6908L28.5126 29.9382V24.2357L22.8101 25.6613ZM34.8033 23.8402C32.7962 24.1959 30.6328 23.4956 28.3133 21.7396C26.5514 22.8954 24.611 23.4734 22.4922 23.4734C20.5742 23.4734 18.7788 22.9955 17.1061 22.0397C16.3479 22.5287 15.2717 23.0399 13.8778 23.5734C12.4839 24.1069 11.4858 24.3181 10.8836 24.2069C11.865 23.0955 12.3668 22.2064 12.3891 21.5396C11.8984 21.9174 11.3185 22.2008 10.6494 22.3898C9.98038 22.5787 9.4897 22.5731 9.17749 22.3731C10.4264 21.4172 11.2517 18.9721 11.6531 15.0376C11.6531 14.971 11.6754 14.1986 11.72 12.7204C11.7646 11.2422 11.8371 9.75834 11.9374 8.269C12.0378 6.77976 12.1661 5.80169 12.3222 5.33488C12.8798 3.68997 14.229 2.38953 16.3701 1.43374C18.5112 0.477942 20.5519 0 22.4922 0C23.8973 0 25.6481 0.366743 27.7445 1.10032C29.841 1.83389 31.2238 2.67858 31.8928 3.63437C32.4282 4.39014 32.785 5.26814 32.9634 6.26849C33.1419 7.26875 33.2478 8.66364 33.2812 10.453C33.3146 12.2424 33.376 13.6262 33.4652 14.6042C33.6436 16.3824 33.9113 17.7829 34.2681 18.8054C34.625 19.8279 35.3498 20.8171 36.4426 21.7729C35.7959 21.9952 35.1323 22.0397 34.4521 21.9063C33.7719 21.7729 33.2533 21.4728 32.8965 21.006C33.0972 22.273 33.7329 23.2178 34.8033 23.8402ZM16.1694 12.1035C15.7011 15.3044 15.5672 17.5717 15.768 18.9054C17.5744 20.8838 19.8159 21.873 22.4922 21.873C24.0088 21.873 25.425 21.5228 26.741 20.8226C28.0568 20.1225 29.1385 19.1721 29.986 17.9718C29.9637 17.8829 29.9191 17.5662 29.8521 17.0216C29.7852 16.477 29.7351 16.0991 29.7016 15.8879C29.6681 15.6768 29.6012 15.3099 29.5009 14.7876C29.4006 14.2652 29.2946 13.854 29.1831 13.5539C29.0716 13.2538 28.9378 12.8981 28.7817 12.4869C28.6255 12.0757 28.4303 11.7033 28.1962 11.3699C27.962 11.0365 27.7111 10.7253 27.4434 10.4363C26.9305 10.5475 26.1778 10.642 25.1853 10.7198C24.1928 10.7975 23.0889 10.792 21.8733 10.7031C20.6578 10.6142 19.8383 10.3807 19.4145 10.0028C19.8159 9.336 19.9497 8.64688 19.8159 7.93559C19.7713 7.69109 19.5371 7.39652 19.1134 7.05205C18.6896 6.7075 18.3997 6.56859 18.2436 6.63523C17.3291 7.07976 16.6378 8.90252 16.1694 12.1035Z" fill="white"/>
</svg>
