<svg width="64" height="64" viewBox="0 0 64 64" fill="none" xmlns="http://www.w3.org/2000/svg">
<path d="M11.1001 45.0001C11.1001 43.0001 11.1001 41.1001 11.1001 39.1001C11.1001 38.7001 11.0001 38.5001 10.6001 38.4001C8.70012 37.7001 6.80012 36.9001 5.00012 36.2001C4.50012 36.0001 4.50012 36.0001 4.90012 35.6001C7.00012 33.3001 9.10012 30.9001 11.1001 28.6001C11.3001 28.3001 11.6001 28.2001 12.0001 28.1001C17.3001 26.5001 22.6001 24.9001 27.9001 23.3001C29.0001 23.0001 30.1001 22.6001 31.3001 22.3001C31.6001 22.2001 32.0001 22.2001 32.3001 22.3001C38.6001 24.2001 44.9001 26.1001 51.3001 28.0001C51.9001 28.2001 52.4001 28.5001 52.8001 29.0001C54.7001 31.2001 56.7001 33.4001 58.6001 35.6001C59.0001 36.1001 59.0001 36.1001 58.4001 36.3001C56.6001 37.0001 54.7001 37.7001 52.9001 38.4001C52.5001 38.5001 52.4001 38.7001 52.4001 39.1001C52.4001 42.9001 52.4001 46.8001 52.4001 50.6001C52.4001 51.2001 52.2001 51.5001 51.6001 51.8001C47.9001 53.4001 44.2001 55.1001 40.5001 56.7001C37.7001 58.0001 34.8001 59.2001 32.0001 60.5001C31.7001 60.6001 31.4001 60.5001 31.2001 60.4001C28.9001 59.4001 26.6001 58.4001 24.3001 57.3001C21.6001 56.1001 18.9001 54.9001 16.2001 53.7001C14.6001 53.0001 13.0001 52.3001 11.4001 51.6001C11.1001 51.5001 11.0001 51.3001 11.0001 50.9001C11.1001 48.9001 11.1001 46.9001 11.1001 45.0001ZM32.6001 38.6001C32.6001 38.7001 32.6001 38.8001 32.6001 38.9001C32.6001 45.3001 32.6001 51.7001 32.6001 58.1001C32.6001 58.5001 32.7001 58.5001 33.1001 58.4001C38.9001 55.8001 44.7001 53.2001 50.5001 50.6001C50.8001 50.5001 50.9001 50.3001 50.9001 50.0001C50.9001 46.5001 50.9001 43.1001 50.9001 39.6001C50.9001 39.2001 50.7001 39.2001 50.4001 39.3001C49.2001 39.8001 48.1001 40.2001 46.9001 40.7001C44.0001 41.8001 41.1001 43.0001 38.2001 44.1001C37.9001 44.2001 37.7001 44.3001 37.5001 44.0001C36.5001 42.9001 35.6001 41.9001 34.6001 40.8001C33.9001 40.1001 33.3001 39.4001 32.6001 38.6001ZM30.9001 38.7001C30.8001 38.8001 30.7001 38.9001 30.6001 38.9001C29.1001 40.5001 27.6001 42.1001 26.1001 43.8001C25.8001 44.1001 25.6001 44.2001 25.2001 44.0001C21.2001 42.4001 17.2001 40.9001 13.2001 39.3001C12.7001 39.1001 12.6001 39.1001 12.6001 39.7001C12.6001 43.0001 12.6001 46.4001 12.6001 49.7001C12.6001 50.2001 12.7001 50.4001 13.2001 50.6001C15.3001 51.5001 17.4001 52.4001 19.4001 53.4001C23.0001 55.0001 26.7001 56.7001 30.3001 58.3001C30.9001 58.6001 30.9001 58.6001 30.9001 57.9001C30.9001 51.7001 30.9001 45.5001 30.9001 39.2001C31.0001 39.1001 31.0001 38.9001 30.9001 38.7001ZM14.5001 28.9001V29.0001C14.8001 29.1001 15.2001 29.3001 15.5001 29.4001C20.8001 31.4001 26.0001 33.5001 31.3001 35.5001C31.7001 35.6001 32.0001 35.6001 32.4001 35.5001C37.5001 33.5001 42.6001 31.5001 47.7001 29.5001C48.2001 29.3001 48.7001 29.1001 49.2001 28.9001C49.0001 28.8001 48.9001 28.8001 48.8001 28.8001C43.3001 27.2001 37.9001 25.5001 32.4001 23.9001C31.9001 23.7001 31.4001 23.8001 30.9001 24.0001C26.7001 25.3001 22.5001 26.5001 18.3001 27.8001C17.0001 28.1001 15.7001 28.5001 14.5001 28.9001ZM38.3001 42.3001C38.4001 42.3001 38.5001 42.2001 38.6001 42.2001C41.1001 41.2001 43.6001 40.3001 46.0001 39.3001C49.3001 38.0001 52.6001 36.7001 55.9001 35.4001C56.3001 35.2001 56.4001 35.2001 56.0001 34.8001C54.6001 33.2001 53.1001 31.6001 51.7001 30.0001C51.4001 29.7001 51.2001 29.6001 50.8001 29.8001C47.3001 31.2001 43.8001 32.5001 40.3001 33.9001C38.0001 34.8001 35.8001 35.7001 33.5001 36.5001C33.3001 36.6001 33.0001 36.6001 33.3001 37.0001C34.8001 38.7001 36.4001 40.3001 37.9001 42.0001C38.0001 42.2001 38.1001 42.3001 38.3001 42.3001ZM30.3001 37.0001C30.3001 36.8001 30.1001 36.8001 29.9001 36.7001C24.1001 34.4001 18.3001 32.2001 12.5001 29.9001C12.2001 29.8001 12.0001 29.8001 11.8001 30.1001C10.4001 31.7001 8.90012 33.3001 7.50012 34.9001C7.20012 35.3001 7.20012 35.3001 7.70012 35.5001C10.4001 36.6001 13.2001 37.6001 15.9001 38.7001C18.8001 39.8001 21.8001 41.0001 24.7001 42.2001C25.2001 42.4001 25.5001 42.3001 25.8001 41.9001C27.2001 40.3001 28.6001 38.8001 30.1001 37.2001C30.2001 37.1001 30.2001 37.0001 30.3001 37.0001Z" fill="#FF7203"/>
<path d="M31.0001 11.4C31.0001 9.30002 31.0001 7.30002 31.0001 5.20002C31.0001 4.60002 31.0001 4.60002 31.6001 4.60002C32.7001 4.60002 32.6001 4.50002 32.6001 5.60002C32.6001 9.60002 32.6001 13.6 32.6001 17.5C32.6001 18.1 32.6001 18.2 31.9001 18.2C30.9001 18.2 31.0001 18.3 31.0001 17.3C31.0001 15.4 31.0001 13.4 31.0001 11.4Z" fill="#FF7203"/>
<path d="M15.7002 22.7C15.7002 22.9 15.5002 23 15.3002 23.2C14.6002 23.9 14.8002 23.9 14.0002 23.2C11.5002 20.8 9.1002 18.3 6.6002 15.9C6.4002 15.7 6.4002 15.6 6.6002 15.4C7.4002 14.5 7.4002 14.5 8.2002 15.3C10.6002 17.6 13.0002 20 15.4002 22.3C15.6002 22.4 15.7002 22.5 15.7002 22.7Z" fill="#FF7203"/>
<path d="M57.0001 15.6C57.0001 15.7 56.9001 15.8 56.8001 15.9C54.7001 17.9 52.6001 20 50.6001 22C50.1001 22.5 49.6001 23 49.1001 23.5C48.9001 23.7 48.8001 23.7 48.6001 23.5C47.8001 22.7 47.7001 22.7 48.5001 21.9C50.5001 19.9 52.5001 18 54.5001 16C54.9001 15.6 55.4001 15.1 55.9001 14.7C56.1001 14.5 56.2001 14.5 56.4001 14.7C56.6001 14.9 56.8001 15.1 57.0001 15.3C56.9001 15.4 57.0001 15.5 57.0001 15.6Z" fill="#FF7203"/>
<path d="M44.1 11.9C43.9 12.3 43.8 12.7 43.6 13.2C42.7 15.3 41.8 17.5 40.9 19.6C40.7 20.2 40.7 20.2 40.1 19.9C39.2 19.5 39.2 19.5 39.6 18.7C40.6 16.3 41.6 14 42.6 11.6C42.7 11.3 42.9 11.2 43.2 11.3C43.4 11.4 43.7 11.5 43.9 11.6C44 11.6 44.1 11.7 44.1 11.9Z" fill="#FF7203"/>
<path d="M24.3 19.4001C24 19.7001 23.6 19.8001 23.2 20.0001C23.1 20.1001 22.9 20.1001 22.8 19.9001C22.7 19.7001 22.6 19.6001 22.6 19.4001C21.6 17.0001 20.6 14.6001 19.6 12.2001C19.4 11.7001 19.4 11.7001 19.9 11.5001C20.8 11.1001 20.8 11.1001 21.2 12.0001C22.2 14.4001 23.2 16.8001 24.2 19.1001C24.2 19.2001 24.3 19.3001 24.3 19.4001Z" fill="#FF7203"/>
</svg>
