<svg width="21" height="24" viewBox="0 0 21 24" fill="none" xmlns="http://www.w3.org/2000/svg">
<g clip-path="url(#clip0_714_4497)">
<path d="M21 13.3024C21.0061 15.7949 20.0818 18.2042 18.4 20.0795C16.718 21.9549 14.394 23.1676 11.8622 23.491C9.3307 23.8142 6.76507 23.2261 4.64541 21.8363C2.52592 20.4468 0.997815 18.3508 0.346982 15.9409C-0.303911 13.5309 -0.0330485 10.9718 1.1089 8.74279C2.25111 6.51338 4.18608 4.76685 6.5517 3.82981C6.89432 3.71747 7.27175 3.78432 7.55223 4.00669C7.83248 4.22905 7.97674 4.57616 7.93414 4.9265C7.89155 5.27682 7.66823 5.58145 7.34233 5.73376C4.92026 6.69579 3.09613 8.70514 2.40879 11.1682C1.72145 13.6312 2.24949 16.2663 3.8369 18.2951C5.42453 20.3235 7.89015 21.5136 10.5049 21.5136C13.1199 21.5136 15.5855 20.3235 17.1728 18.2951C18.7605 16.2665 19.2885 13.6313 18.6012 11.1682C17.9139 8.70514 16.0897 6.69579 13.6674 5.73376C13.3919 5.64325 13.1667 5.44592 13.0453 5.18795C12.9236 4.92998 12.9168 4.63456 13.026 4.37129C13.1354 4.10826 13.3509 3.90083 13.6222 3.79837C13.8933 3.69592 14.1959 3.70717 14.4581 3.82984C16.3935 4.58976 18.0511 5.89846 19.2168 7.58713C20.3827 9.27579 21.0042 11.266 21 13.3024ZM10.5001 12.6335C10.7797 12.6335 11.0479 12.5251 11.2456 12.3321C11.4433 12.1392 11.5543 11.8773 11.5543 11.6044V1.98225C11.5543 1.61447 11.3534 1.27473 11.0272 1.09096C10.7011 0.90718 10.2992 0.90718 9.97304 1.09096C9.6469 1.27473 9.44594 1.61448 9.44594 1.98225V11.6044C9.44594 11.8773 9.55701 12.1392 9.75467 12.3321C9.95233 12.5251 10.2206 12.6335 10.5001 12.6335Z" fill="#FF7203"/>
</g>
<defs>
<clipPath id="clip0_714_4497">
<rect width="21" height="24" fill="white"/>
</clipPath>
</defs>
</svg>
