<svg width="24" height="25" viewBox="0 0 24 25" fill="none" xmlns="http://www.w3.org/2000/svg">
<path d="M14.972 10.0288H22.997C23.2619 10.0288 23.5159 9.92362 23.7032 9.73634C23.8904 9.54906 23.9957 9.29506 23.9957 9.03021C23.9957 6.63699 23.045 4.34179 21.3527 2.64953C19.6604 0.957264 17.3652 0.00656128 14.972 0.00656128C14.7072 0.00656128 14.4532 0.111772 14.2659 0.299049C14.0786 0.486327 13.9734 0.740329 13.9734 1.00518V9.03021C13.9734 9.29506 14.0786 9.54906 14.2659 9.73634C14.4532 9.92362 14.7072 10.0288 14.972 10.0288Z" fill="#809FB8"/>
<path d="M22.8889 12.0381H13.0832C12.9394 12.0381 12.7971 12.0098 12.6642 11.9548C12.5314 11.8997 12.4107 11.8191 12.309 11.7174C12.2073 11.6157 12.1267 11.495 12.0717 11.3622C12.0167 11.2294 11.9883 11.087 11.9883 10.9432V1.11346C11.9893 0.957399 11.9572 0.802905 11.8942 0.660117C11.8312 0.51733 11.7387 0.389477 11.6228 0.28495C11.5069 0.180422 11.3703 0.101582 11.2217 0.0536043C11.0732 0.00562615 10.9163 -0.0104058 10.7611 0.00656053C8.5025 0.24639 6.3579 1.12065 4.57532 2.52824C2.79274 3.93582 1.44501 5.81924 0.68797 7.96068C-0.0690682 10.1021 -0.204485 12.4141 0.297381 14.6293C0.799246 16.8445 1.91789 18.8723 3.52396 20.4784C5.13002 22.0845 7.1579 23.2031 9.37307 23.705C11.5883 24.2069 13.9002 24.0714 16.0417 23.3144C18.1831 22.5574 20.0665 21.2096 21.4741 19.427C22.8817 17.6445 23.756 15.4999 23.9958 13.2412C24.0092 13.088 23.9905 12.9337 23.9409 12.788C23.8913 12.6424 23.8119 12.5088 23.7077 12.3956C23.6036 12.2823 23.477 12.1921 23.336 12.1305C23.195 12.069 23.0427 12.0375 22.8889 12.0381Z" fill="#809FB8"/>
</svg>
