<svg width="26" height="27" viewBox="0 0 26 27" fill="none" xmlns="http://www.w3.org/2000/svg">
<path d="M21.1194 22.4394H3.95989L0 26.3993V3.95989C0 1.78195 1.78195 0 3.95989 0H21.1194C23.2974 0 25.0793 1.78195 25.0793 3.95989V18.4795C25.0793 20.6574 23.2974 22.4394 21.1194 22.4394Z" fill="#809FB8"/>
<path d="M11.22 9.23975H13.8599V16.4996H11.22V9.23975Z" fill="white"/>
<path d="M12.5399 7.25982C13.2689 7.25982 13.8599 6.66885 13.8599 5.93985C13.8599 5.21086 13.2689 4.61989 12.5399 4.61989C11.8109 4.61989 11.22 5.21086 11.22 5.93985C11.22 6.66885 11.8109 7.25982 12.5399 7.25982Z" fill="white"/>
</svg>
