<?xml version="1.0" encoding="utf-8"?>
<!-- Generator: Adobe Illustrator 18.1.1, SVG Export Plug-In . SVG Version: 6.00 Build 0)  -->
<svg version="1.1" id="Layer_1" xmlns="http://www.w3.org/2000/svg" xmlns:xlink="http://www.w3.org/1999/xlink" x="0px" y="0px"
	 viewBox="0 0 64 64" enable-background="new 0 0 64 64" xml:space="preserve">
<g>
	<path fill="#6382FF" d="M25.3,29.7c0.5,0.5,1,0.9,1.5,1.3c0.3,0.2,0.5,0.4,0.8,0.6c0.1,0.1,0.2,0.3,0.3,0.4c0.2,2.6,1,5.1,2.4,7.3
		c1.4,2.2,2.8,4.4,4.2,6.6c2,3.1,4.1,6.2,6.2,9.3c0.6,0.9,1.6,0.9,2.2,0c3.1-4.7,6.3-9.4,9.3-14.1c1.5-2.3,2.7-4.7,3.2-7.4
		c0.8-4.6,0-8.9-3.1-12.4c-3.9-4.3-8.7-5.7-14.3-4.3c-0.1,0-0.2,0.1-0.4,0.1c0-0.9,0-1.7,0-2.5c0-0.1,0.2-0.2,0.3-0.2
		c1.8-0.5,3.6-0.6,5.5-0.4c5.1,0.6,9.1,2.9,12,7.1c2.3,3.3,3.1,7,2.8,11c-0.3,3.4-1.5,6.5-3.3,9.4c-1.4,2.3-3,4.5-4.5,6.8
		c-1.8,2.8-3.7,5.5-5.5,8.3c-1.5,2.3-4.8,2.3-6.3,0c-2.4-3.6-4.8-7.2-7.2-10.8c-1.4-2.1-2.8-4.2-4-6.4c-1.6-3-2.2-6.2-2.2-9.6
		C25.2,29.9,25.2,29.9,25.3,29.7z"/>
	<path fill="#6382FF" d="M20.2,5.7c3.3,0,6.7,0,10,0c2.4,0,4.4,1.7,4.7,4c0,0.3,0,0.5,0,0.8c0,3.5,0,6.9,0,10.4c0,2.1-1,3.5-2.8,4.4
		c-0.2,0.1-0.2,0.2-0.2,0.4c0,0.7,0,1.3,0,2c0,0.9-0.4,1.5-1.2,1.9c-0.8,0.4-1.5,0.2-2.2-0.3c-1.3-1.1-2.5-2.2-3.7-3.3
		c-0.2-0.2-0.4-0.2-0.6-0.2c-4.7,0-9.3,0-14,0c-2.8,0-4.8-2.1-4.8-4.8c0-3.5,0-6.9,0-10.4c0-2.7,2.1-4.8,4.8-4.8
		C13.5,5.7,16.8,5.7,20.2,5.7z M29.4,26.5c0-0.2,0-0.3,0-0.4c0-0.5,0-1.1,0-1.6c0-0.7,0.4-1.2,1.1-1.3c1.3-0.2,2-1,2-2.4
		c0-3.4,0-6.8,0-10.2c0-1.4-0.9-2.3-2.3-2.3c-6.6,0-13.3,0-19.9,0c-0.2,0-0.3,0-0.5,0c-1.1,0.2-1.8,1.1-1.8,2.3c0,3.4,0,6.8,0,10.2
		c0,1.5,1.1,2.5,2.5,2.5c4.8,0,9.7,0,14.5,0c0.5,0,0.8,0.1,1.2,0.5c1,0.9,2,1.8,3.1,2.7C29.1,26.3,29.2,26.4,29.4,26.5z"/>
	<path fill="#6382FF" d="M33.3,30.5c0-4.7,3.8-8.5,8.5-8.4c4.7,0,8.5,3.8,8.4,8.5c0,4.7-3.8,8.5-8.5,8.5C37,39,33.2,35.2,33.3,30.5z
		 M35.8,30.6c0,3.3,2.7,5.9,6,5.9c3.3,0,5.9-2.7,5.8-6c0-3.2-2.7-5.9-6-5.8C38.4,24.7,35.8,27.3,35.8,30.6z"/>
	<path fill="#6382FF" d="M11.7,13.2c1.3,0,2.4,1.1,2.4,2.4c0,1.3-1.1,2.4-2.4,2.4c-1.4,0-2.5-1.1-2.5-2.5
		C9.2,14.3,10.3,13.2,11.7,13.2z"/>
	<path fill="#6382FF" d="M28.7,13.2c1.3,0,2.4,1.1,2.4,2.4c0,1.3-1.1,2.4-2.4,2.4c-1.4,0-2.5-1.1-2.5-2.5
		C26.2,14.3,27.3,13.2,28.7,13.2z"/>
	<path fill="#6382FF" d="M22.6,15.7c0,1.4-1.1,2.4-2.5,2.4c-1.4,0-2.5-1.1-2.4-2.5c0-1.4,1.1-2.4,2.5-2.4
		C21.6,13.3,22.6,14.4,22.6,15.7z"/>
</g>
</svg>
