<svg width="47" height="47" viewBox="0 0 47 47" fill="none" xmlns="http://www.w3.org/2000/svg">
<g clip-path="url(#clip0_141_2944)">
<path d="M15.8816 19.2339H8.4834V37.914H15.8816V19.2339Z" fill="#1E81CE"/>
<path d="M23.3495 19.2339H19.6504V37.914H23.3495V19.2339Z" fill="#1E81CE"/>
<path d="M27.0487 19.2339H23.3496V37.914H27.0487V19.2339Z" fill="#1E81CE"/>
<path d="M38.2156 19.2339H30.8174V37.914H38.2156V19.2339Z" fill="#1E81CE"/>
<path d="M38.2157 19.2339V37.914H30.8175V19.2339H27.0487V37.914H23.3496V46.3939H43.9434V37.914H41.9845V19.2339H38.2157Z" fill="#C4C8F5"/>
<path d="M43.9434 11.5107H23.3496V19.234H43.9434V11.5107Z" fill="#FFB655"/>
<path d="M43.9434 11.5109L23.3496 0.481445V11.5109H43.9434Z" fill="#C4C8F5"/>
<path d="M23.3496 37.914H19.6505V19.2339H15.8817V37.914H8.48352V19.2339H4.7147V37.914H2.75586V46.3939H23.3496V37.914Z" fill="#C4C8F5"/>
<path d="M23.3496 11.5107H2.75586V19.234H23.3496V11.5107Z" fill="#FFB655"/>
<path d="M23.3496 0.481445L2.75586 11.5109H23.3496V0.481445Z" fill="#C4C8F5"/>
</g>
<defs>
<clipPath id="clip0_141_2944">
<rect width="45.9127" height="45.9127" fill="white" transform="translate(0.393555 0.481445)"/>
</clipPath>
</defs>
</svg>
