<svg width="19" height="19" viewBox="0 0 19 19" fill="none" xmlns="http://www.w3.org/2000/svg">
<path d="M1.83333 10.5508H7.58333C8.11042 10.5508 8.54167 10.1196 8.54167 9.59247V1.9258C8.54167 1.39872 8.11042 0.967468 7.58333 0.967468H1.83333C1.30625 0.967468 0.875 1.39872 0.875 1.9258V9.59247C0.875 10.1196 1.30625 10.5508 1.83333 10.5508ZM1.83333 18.2175H7.58333C8.11042 18.2175 8.54167 17.7862 8.54167 17.2591V13.4258C8.54167 12.8987 8.11042 12.4675 7.58333 12.4675H1.83333C1.30625 12.4675 0.875 12.8987 0.875 13.4258V17.2591C0.875 17.7862 1.30625 18.2175 1.83333 18.2175ZM11.4167 18.2175H17.1667C17.6937 18.2175 18.125 17.7862 18.125 17.2591V9.59247C18.125 9.06538 17.6937 8.63413 17.1667 8.63413H11.4167C10.8896 8.63413 10.4583 9.06538 10.4583 9.59247V17.2591C10.4583 17.7862 10.8896 18.2175 11.4167 18.2175ZM10.4583 1.9258V5.75913C10.4583 6.28622 10.8896 6.71747 11.4167 6.71747H17.1667C17.6937 6.71747 18.125 6.28622 18.125 5.75913V1.9258C18.125 1.39872 17.6937 0.967468 17.1667 0.967468H11.4167C10.8896 0.967468 10.4583 1.39872 10.4583 1.9258Z" fill="#809FB8"/>
</svg>
