<svg width="45" height="41" viewBox="0 0 45 41" fill="none" xmlns="http://www.w3.org/2000/svg">
<path d="M39.2186 33.0166C39.2186 31.1593 38.4819 29.3776 37.1681 28.0638C35.8542 26.75 34.0726 26.0132 32.2153 26.0132C26.4642 26.0132 18.3571 26.0132 12.606 26.0132C10.7487 26.0132 8.96706 26.75 7.65324 28.0638C6.33941 29.3776 5.60266 31.1593 5.60266 33.0166V40.0199H39.2186C39.2186 40.0199 39.2186 37.6304 39.2186 33.0166ZM33.616 14.8079H39.2186C40.7033 14.8079 42.1292 15.399 43.1797 16.4495C44.2302 17.5 44.8213 18.9259 44.8213 20.4106V28.8146H41.0759C39.5016 25.5034 36.126 23.2119 32.2153 23.2119H29.8202C32.1481 21.1585 33.616 18.1527 33.616 14.8079ZM3.74538 28.8146H0C0 28.8146 0 24.31 0 20.4106C0 18.9259 0.591081 17.5 1.64158 16.4495C2.69208 15.399 4.11796 14.8079 5.60266 14.8079H11.2053C11.2053 18.1527 12.6732 21.1585 15.0011 23.2119H12.606C8.69533 23.2119 5.31973 25.5006 3.74538 28.8146ZM22.4106 6.40393C27.0496 6.40393 30.8146 10.1689 30.8146 14.8079C30.8146 19.4469 27.0496 23.2119 22.4106 23.2119C17.7716 23.2119 14.0067 19.4469 14.0067 14.8079C14.0067 10.1689 17.7716 6.40393 22.4106 6.40393ZM11.5611 11.9954C11.4434 12.0038 11.3258 12.0066 11.2053 12.0066C8.11265 12.0066 5.60266 9.4966 5.60266 6.40393C5.60266 3.31126 8.11265 0.80127 11.2053 0.80127C13.8778 0.80127 16.1161 2.67816 16.6735 5.18255C14.1775 6.67566 12.309 9.11002 11.5611 11.9954ZM28.1478 5.18255C28.7052 2.67816 30.9435 0.80127 33.616 0.80127C36.7086 0.80127 39.2186 3.31126 39.2186 6.40393C39.2186 9.4966 36.7086 12.0066 33.616 12.0066C33.4955 12.0066 33.3779 12.0038 33.2602 11.9954C32.5122 9.11002 30.6438 6.67566 28.1478 5.18255Z" fill="white"/>
</svg>
