<svg width="23" height="20" viewBox="0 0 23 20" fill="none" xmlns="http://www.w3.org/2000/svg">
<path d="M20.125 16.4286C20.125 15.4814 19.7469 14.5729 19.0728 13.9029C18.3986 13.2329 17.4843 12.8571 16.5312 12.8571C13.5801 12.8571 9.41994 12.8571 6.46875 12.8571C5.51569 12.8571 4.60144 13.2329 3.92725 13.9029C3.25306 14.5729 2.875 15.4814 2.875 16.4286V20H20.125C20.125 20 20.125 18.7814 20.125 16.4286ZM17.25 7.14286H20.125C20.8869 7.14286 21.6186 7.44429 22.1576 7.98C22.6967 8.51571 23 9.24286 23 10V14.2857H21.0781C20.2702 12.5971 18.538 11.4286 16.5312 11.4286H15.3022C16.4967 10.3814 17.25 8.84857 17.25 7.14286ZM1.92194 14.2857H0C0 14.2857 0 11.9886 0 10C0 9.24286 0.303313 8.51571 0.842375 7.98C1.38144 7.44429 2.11313 7.14286 2.875 7.14286H5.75C5.75 8.84857 6.50325 10.3814 7.69781 11.4286H6.46875C4.462 11.4286 2.72981 12.5957 1.92194 14.2857ZM11.5 2.85714C13.8805 2.85714 15.8125 4.77714 15.8125 7.14286C15.8125 9.50857 13.8805 11.4286 11.5 11.4286C9.1195 11.4286 7.1875 9.50857 7.1875 7.14286C7.1875 4.77714 9.1195 2.85714 11.5 2.85714ZM5.93256 5.70857C5.87219 5.71286 5.81181 5.71429 5.75 5.71429C4.163 5.71429 2.875 4.43429 2.875 2.85714C2.875 1.28 4.163 0 5.75 0C7.12138 0 8.26994 0.957143 8.556 2.23429C7.27519 2.99571 6.31637 4.23714 5.93256 5.70857ZM14.444 2.23429C14.7301 0.957143 15.8786 0 17.25 0C18.837 0 20.125 1.28 20.125 2.85714C20.125 4.43429 18.837 5.71429 17.25 5.71429C17.1882 5.71429 17.1278 5.71286 17.0674 5.70857C16.6836 4.23714 15.7248 2.99571 14.444 2.23429Z" fill="#809FB8"/>
</svg>
