<svg width="24" height="24" viewBox="0 0 24 24" fill="none" xmlns="http://www.w3.org/2000/svg">
<path fill-rule="evenodd" clip-rule="evenodd" d="M3.94267 0.0628815C2.89701 0.0628815 1.89417 0.478269 1.15478 1.21766C0.415387 1.95706 0 2.95989 0 4.00555V19.7762C0 20.8219 0.415387 21.8247 1.15478 22.5641C1.89417 23.3035 2.89701 23.7189 3.94267 23.7189H9.19956C10.2452 23.7189 11.2481 23.3035 11.9874 22.5641C12.7268 21.8247 13.1422 20.8219 13.1422 19.7762V13.2051H19.1693L16.1557 16.2186C15.9163 16.4665 15.7839 16.7985 15.7869 17.143C15.7899 17.4876 15.9281 17.8173 16.1718 18.0609C16.4154 18.3046 16.745 18.4428 17.0896 18.4458C17.4342 18.4488 17.7662 18.3163 18.0141 18.0769L23.2709 12.82C23.5173 12.5736 23.6557 12.2394 23.6557 11.8909C23.6557 11.5424 23.5173 11.2082 23.2709 10.9617L18.0141 5.70484C17.8928 5.57932 17.7478 5.4792 17.5875 5.41032C17.4271 5.34144 17.2547 5.30519 17.0802 5.30367C16.9057 5.30216 16.7326 5.33541 16.5711 5.40149C16.4096 5.46757 16.2628 5.56515 16.1395 5.68855C16.0161 5.81195 15.9185 5.95868 15.8524 6.12019C15.7863 6.28171 15.7531 6.45476 15.7546 6.62927C15.7561 6.80377 15.7923 6.97622 15.8612 7.13656C15.9301 7.2969 16.0302 7.44192 16.1557 7.56315L19.1693 10.5767H13.1422V4.00555C13.1422 2.95989 12.7268 1.95706 11.9874 1.21766C11.2481 0.478269 10.2452 0.0628815 9.19956 0.0628815H3.94267ZM13.1422 10.5767H6.57111C6.22256 10.5767 5.88828 10.7151 5.64182 10.9616C5.39535 11.2081 5.25689 11.5423 5.25689 11.8909C5.25689 12.2394 5.39535 12.5737 5.64182 12.8202C5.88828 13.0666 6.22256 13.2051 6.57111 13.2051H13.1422V10.5767Z" fill="#809FB8"/>
</svg>
