<svg width="409" height="91" viewBox="0 0 409 91" fill="none" xmlns="http://www.w3.org/2000/svg">
<path d="M336.509 89.4388C336.509 89.5388 336.509 89.6388 336.509 89.7388C336.509 90.0388 336.309 90.1388 336.009 90.1388C335.909 90.1388 335.909 90.1388 335.809 90.1388C334.909 89.8388 334.009 88.9388 333.109 87.3388C331.709 84.7388 330.909 81.6388 330.709 77.9388H330.609C330.009 78.9388 329.309 80.7388 328.309 83.3388C327.509 85.6388 326.809 87.1388 326.409 87.7388C325.709 88.8388 325.009 89.4388 324.409 89.4388C324.309 89.4388 324.209 89.4388 324.109 89.4388C323.509 89.2388 323.109 88.9388 322.809 88.7388C322.609 88.4388 322.309 87.7388 321.909 86.8388C321.409 85.7388 321.109 83.6388 320.809 80.8388V80.6388C320.709 79.5388 320.609 78.7388 320.509 78.2388C320.509 78.1388 320.409 78.0388 320.309 78.0388H320.209C319.209 79.1388 318.009 81.5388 316.409 85.0388L315.809 86.5388V86.7388C315.409 87.7388 315.109 88.3388 314.909 88.7388C314.409 89.6388 313.809 90.0388 313.109 90.0388C312.909 90.0388 312.809 90.0388 312.809 90.0388C312.309 89.8388 311.909 89.4388 311.709 88.9388C311.509 88.4388 311.309 87.7388 311.209 86.6388C311.209 86.4388 311.209 86.1388 311.209 85.7388C311.209 84.5388 311.509 81.9388 312.009 78.1388C312.309 75.9388 312.509 74.5388 312.509 73.9388C312.609 73.4388 312.609 72.9388 312.609 72.5388C312.609 72.3388 312.609 72.1388 312.609 72.0388C312.709 71.7388 312.909 71.5388 313.209 71.5388C313.909 71.7388 314.409 72.0388 314.909 72.6388C315.309 73.2388 315.609 73.8388 315.609 74.5388V74.6388C315.509 75.7388 315.409 77.3388 315.209 79.3388C315.109 80.5388 315.009 81.7388 314.909 82.9388H315.009C315.309 82.4388 315.809 81.6388 316.309 80.4388C317.309 78.4388 318.109 76.9388 318.609 76.1388C319.009 75.5388 319.409 75.0388 320.009 74.6388C320.609 74.2388 321.209 73.9388 321.709 73.8388H322.009C322.809 73.8388 323.409 74.4388 323.809 75.6388C324.009 76.1388 324.209 77.1388 324.309 78.8388C324.609 81.2388 324.909 82.8388 325.209 83.6388H325.309H325.409C325.709 83.1388 326.209 81.8388 326.909 79.8388C327.909 77.2388 328.609 75.6388 328.909 75.0388C329.409 74.2388 330.109 73.5388 330.809 73.1388C331.209 72.8388 331.609 72.7388 332.109 72.7388C332.909 72.7388 333.509 73.2388 333.909 74.2388C334.109 74.8388 334.309 76.6388 334.509 79.4388C334.709 81.6388 334.809 82.9388 334.909 83.5388C335.409 85.9388 335.909 87.9388 336.509 89.4388Z" fill="#EB6C30"/>
<path d="M356.21 89.7388C356.11 89.8388 355.91 89.9388 355.71 89.9388C355.51 89.9388 355.31 89.8388 355.11 89.7388C354.21 89.2388 353.41 88.4388 352.61 87.1388C351.81 85.7388 351.21 84.3388 350.81 82.8388C350.71 82.8388 350.61 82.8388 350.61 82.8388C350.21 83.1388 349.51 84.0388 348.71 85.4388L348.61 85.6388C347.91 86.7388 347.41 87.5388 347.11 87.9388C345.81 89.4388 344.41 90.1388 342.81 90.1388H342.41C341.31 90.0388 340.31 88.7388 339.51 86.2388L339.41 85.9388C339.11 85.0388 338.91 84.4388 338.91 84.0388C338.91 82.3388 339.51 80.5388 340.71 78.6388C341.71 77.0388 343.01 75.5388 344.61 74.2388C345.21 73.7388 346.01 73.3388 346.91 73.0388C347.81 72.7388 348.61 72.5388 349.31 72.5388C349.61 72.5388 349.81 72.5388 350.11 72.6388C350.51 72.7388 351.01 73.1388 351.61 73.8388C352.01 74.3388 352.31 74.9388 352.31 75.5388C352.31 75.9388 352.21 76.2388 351.91 76.2388C351.51 75.9388 351.01 75.7388 350.41 75.7388C350.11 75.7388 349.81 75.7388 349.51 75.8388C347.71 76.3388 345.91 77.3388 344.31 78.9388C343.61 79.6388 342.91 80.5388 342.41 81.5388C341.91 82.5388 341.71 83.4388 341.71 84.2388C341.71 84.8388 341.91 85.2388 342.21 85.5388C342.41 85.7388 342.71 85.8388 343.01 85.8388C343.71 85.8388 344.71 85.1388 346.11 83.8388L347.21 82.6388C348.31 81.3388 349.31 80.4388 349.91 79.9388C350.61 79.4388 351.21 79.1388 351.81 79.0388H351.91C352.61 79.0388 353.11 79.5388 353.51 80.6388C353.81 81.4388 354.11 82.7388 354.51 84.5388V84.6388L354.81 85.9388C355.01 86.9388 355.41 88.0388 355.81 89.0388L356.01 89.5388C356.21 89.5388 356.21 89.6388 356.21 89.7388Z" fill="#EB6C30"/>
<path d="M368.71 75.5388C368.81 75.7388 368.81 75.8388 368.81 76.0388C368.81 76.4388 368.71 76.7388 368.51 77.1388C368.31 77.5388 368.01 77.8388 367.61 77.8388C367.41 77.8388 367.11 77.7388 366.91 77.6388C366.61 77.5388 366.31 77.4388 366.11 77.4388C365.81 77.4388 365.51 77.5388 365.31 77.7388C364.41 78.7388 363.71 80.1388 363.31 81.9388C363.01 83.3388 362.81 84.9388 362.81 86.8388C362.81 87.3388 362.81 88.1388 362.91 89.0388C362.81 89.4388 362.71 89.6388 362.71 89.8388C362.61 90.0388 362.51 90.1388 362.41 90.2388C362.31 90.3388 362.11 90.5388 361.81 90.6388C361.21 90.6388 360.61 90.2388 359.91 89.3388L359.61 89.0388C359.21 88.5388 359.01 88.1388 358.81 87.7388C358.71 87.3388 358.71 86.9388 358.71 86.4388C358.71 86.3388 358.71 85.7388 358.81 84.7388V84.4388C358.91 83.3388 358.91 82.5388 358.91 82.0388C358.91 81.0388 358.81 80.0388 358.71 78.9388C358.51 76.9388 358.31 75.1388 357.91 73.5388C357.91 72.9388 358.11 72.5388 358.41 72.5388H358.61C360.01 72.6388 360.81 73.2388 361.21 74.3388C361.31 74.8388 361.51 75.7388 361.61 77.2388V77.4388C361.81 78.8388 361.91 79.6388 361.91 79.9388H362.01L362.31 79.1388C363.91 75.5388 365.21 73.7388 366.21 73.7388H366.31C366.91 73.8388 367.31 73.9388 367.61 74.2388C368.11 74.2388 368.41 74.7388 368.71 75.5388Z" fill="#EB6C30"/>
<path d="M383.71 88.5388C383.71 88.6388 383.71 88.7388 383.71 88.8388C383.71 89.1388 383.51 89.4388 383.21 89.6388C382.71 89.8388 382.01 89.9388 381.21 89.9388C380.41 89.9388 379.81 89.7388 379.31 89.4388C378.11 88.6388 376.61 86.7388 374.81 83.5388C374.71 83.4388 374.71 83.3388 374.61 83.2388L374.11 83.4388C374.01 83.9388 374.01 84.4388 374.01 84.8388C374.01 85.3388 374.01 85.7388 374.01 86.1388V86.2388C374.01 86.5388 374.01 86.9388 374.01 87.3388C374.01 87.6388 374.01 88.0388 373.91 88.3388C373.81 88.8388 373.61 89.2388 373.31 89.4388L373.11 89.6388C372.81 89.9388 372.31 90.0388 371.51 90.0388C371.31 90.0388 371.11 90.0388 370.91 89.9388C370.61 89.6388 370.51 89.1388 370.41 88.4388C370.41 87.7388 370.51 86.6388 370.71 85.2388V84.9388C370.91 82.5388 371.11 80.8388 371.11 79.8388C371.21 78.2388 371.21 76.6388 371.21 75.0388C371.21 72.1388 371.11 69.5388 371.01 67.0388V66.7388V66.6388C370.91 65.7388 370.91 65.1388 370.91 65.0388C370.91 64.1388 371.01 63.4388 371.21 63.0388C371.31 62.9388 371.51 62.8388 371.71 62.7388C372.81 62.8388 373.71 63.5388 374.21 64.8388C374.41 65.3388 374.51 66.5388 374.51 68.7388C374.51 68.9388 374.51 70.5388 374.41 73.5388C374.31 75.4388 374.31 76.6388 374.31 76.9388C375.01 76.4388 375.61 75.8388 376.31 75.1388C376.91 74.5388 377.71 74.1388 378.71 73.9388C378.81 73.9388 378.91 73.9388 379.01 73.9388C379.41 73.9388 379.81 74.0388 380.21 74.3388C380.61 74.6388 381.01 74.9388 381.31 75.3388C381.51 75.6388 381.61 76.1388 381.61 76.7388C381.61 77.3388 381.51 78.0388 381.21 78.7388C381.01 79.3388 380.71 79.9388 380.21 80.4388C379.71 80.9388 378.81 81.6388 377.61 82.4388L377.31 82.6388C377.81 83.6388 379.11 85.1388 381.31 87.2388C382.31 87.5388 382.91 88.1388 383.71 88.5388ZM378.11 78.2388C378.11 77.9388 378.01 77.5388 377.71 77.2388C377.41 76.9388 377.21 76.7388 376.91 76.7388C376.81 76.7388 376.81 76.7388 376.81 76.7388C376.41 76.8388 375.91 77.0388 375.51 77.3388C375.01 77.6388 374.71 77.9388 374.51 78.2388C374.41 78.5388 374.41 79.3388 374.41 80.6388V81.4388V81.6388C374.71 81.5388 375.11 81.3388 375.71 81.0388C376.31 80.7388 376.71 80.4388 377.01 80.2388C377.81 79.6388 378.11 78.9388 378.11 78.2388Z" fill="#EB6C30"/>
<path d="M398.609 77.3387C398.409 78.1387 397.809 78.9387 396.909 79.6387C396.009 80.3387 395.009 80.9387 393.909 81.2387C392.209 81.7387 390.609 82.0387 389.309 82.0387C389.409 83.5387 389.709 84.6387 390.109 85.3387C390.809 86.6387 391.809 87.4387 393.209 87.7387C393.909 87.8387 394.509 87.9387 395.009 87.9387C395.709 87.9387 396.509 87.8387 397.109 87.6387C397.309 87.6387 397.309 87.7387 397.309 87.9387C397.309 88.0387 397.309 88.1387 397.209 88.2387C395.809 89.4387 394.009 90.0387 391.609 90.0387H391.409C390.209 89.9387 389.209 89.6387 388.409 89.2387C387.609 88.7387 386.909 87.9387 386.209 86.8387C385.409 85.5387 385.009 84.0387 385.009 82.2387C385.009 81.7387 385.009 81.2387 385.109 80.7387C385.309 79.1387 385.809 77.6387 386.709 76.4387C387.409 75.4387 388.409 74.5387 389.609 73.8387C390.809 73.1387 392.009 72.7387 393.309 72.6387H394.009C395.309 72.6387 396.309 72.9387 397.109 73.6387L397.309 73.8387C397.809 74.1387 398.109 74.4387 398.309 74.8387C398.509 75.3387 398.609 75.8387 398.609 76.3387C398.809 76.6387 398.709 76.9387 398.609 77.3387ZM394.709 76.6387C394.709 76.0387 394.509 75.4387 394.209 75.0387C393.909 74.6387 393.409 74.4387 392.909 74.4387H392.809C391.509 74.5387 390.609 75.2387 390.009 76.3387C389.509 77.5387 389.209 78.9387 389.209 80.6387V80.8387C390.809 80.7387 392.109 80.2387 393.109 79.5387C393.509 79.2387 393.909 78.8387 394.109 78.2387C394.609 77.7387 394.709 77.2387 394.709 76.6387Z" fill="#EB6C30"/>
<path d="M408.91 77.4387L406.61 77.5387C406.41 79.1387 406.11 80.8387 405.81 82.5387C405.51 84.0387 405.41 86.2387 405.41 89.0387C405.41 89.4387 405.31 89.7387 405.21 90.1387L404.91 90.3387C404.21 89.0387 403.71 87.5387 403.31 85.6387C402.91 83.7387 402.71 81.7387 402.71 79.9387C402.71 79.1387 402.71 78.4387 402.81 77.7387C402.01 77.6387 401.31 77.3387 400.51 76.7387L400.31 76.5387C399.81 76.1387 399.51 75.8387 399.41 75.5387L399.51 75.3387L399.41 75.0387H399.61C400.11 75.0387 401.01 75.1387 402.31 75.3387C402.41 75.3387 402.41 75.3387 402.51 75.3387C402.61 75.3387 402.71 75.3387 402.81 75.3387L402.91 74.4387C403.01 73.3387 403.11 72.4387 403.31 71.8387C403.51 71.1387 403.81 70.4387 404.21 69.7387L404.91 69.2387L405.21 68.6387C405.61 68.8387 406.01 69.2387 406.31 69.7387C406.61 70.3387 406.91 70.9387 407.01 71.6387L406.71 76.4387C407.31 76.6387 407.91 76.7387 408.51 76.7387C408.81 77.0387 408.91 77.1387 408.91 77.4387Z" fill="#EB6C30"/>
<path d="M12.3094 24.8387C16.1094 20.1387 20.0094 15.3387 23.9094 10.6387C26.0094 8.13872 28.2094 5.73871 30.4094 3.33871C32.7094 0.838715 35.6094 0.338727 38.6094 1.03873C40.7094 1.53873 43.1094 2.43871 43.8094 4.33871C44.3094 5.73871 41.9094 6.73871 40.8094 7.83871C33.8094 14.9387 27.8094 22.7387 21.5094 30.3387C20.4094 31.6387 20.7094 32.4387 21.5094 33.6387C27.5094 41.5387 33.4094 49.4387 40.3094 56.6387C41.9094 58.2387 42.9094 58.5387 44.3094 56.4387C53.8094 41.9387 62.0094 26.8387 68.8094 10.9387C69.8094 8.63872 69.6094 8.53872 65.9094 2.23872C72.3094 0.138724 78.8094 2.53872 82.4094 8.13872C87.5094 16.3387 90.7094 25.5387 94.8094 34.1387C98.7094 42.3387 102.909 50.2387 109.309 56.8387C109.909 57.4387 110.909 58.0387 110.509 58.9387C110.109 59.9387 109.009 59.5387 108.209 59.7387C100.109 61.2387 94.3094 57.7387 90.3094 50.9387C88.7094 48.1387 86.8094 47.2387 83.7094 47.3387C76.6094 47.5387 69.4094 47.5387 62.3094 47.5387C60.5094 47.5387 59.4094 48.0387 58.5094 49.7387C56.1094 54.2387 52.4094 57.2387 47.7094 59.1387C45.9094 59.8387 44.1094 60.8387 42.4094 61.9387C37.3094 64.9387 34.6094 64.7387 30.6094 60.3387C25.6094 54.9387 21.2094 48.9387 16.8094 43.0387C16.0094 41.9387 15.6094 39.7387 13.8094 40.4387C12.2094 41.0387 12.8094 43.1387 12.8094 44.5387C12.7094 49.8387 12.6094 55.1387 13.9094 60.2387C14.4094 62.3387 13.5094 62.8387 11.8094 63.2387C6.40938 64.3387 1.40938 60.5387 1.20938 55.0387C0.80938 37.5387 0.509375 19.9387 0.00937502 2.43872C-0.090625 0.538721 0.609374 0.438721 2.10937 0.438721C7.70937 0.538721 11.1094 3.53873 11.3094 9.03873C11.5094 14.2387 11.3094 19.5387 11.3094 24.7387C11.6094 24.6387 11.9094 24.7387 12.3094 24.8387ZM74.0094 16.4387C70.6094 24.8387 67.7094 32.9387 63.8094 40.6387C63.1094 41.9387 63.6094 42.5387 65.0094 42.5387C71.0094 42.4387 77.0094 42.3387 83.0094 42.2387C84.0094 42.2387 85.4094 42.0387 84.5094 40.2387C80.7094 32.5387 78.3094 24.3387 74.0094 16.4387Z" fill="#EB6C30"/>
<path d="M150.709 26.5388C151.009 34.3388 151.409 42.0388 153.609 49.6388C153.909 50.6388 154.209 51.5388 154.609 52.4388C155.609 54.6388 156.209 57.8388 159.109 57.7388C161.809 57.6388 163.509 55.0388 164.709 52.7388C166.909 48.5388 167.909 44.0388 168.409 39.4388C169.709 27.1388 169.809 14.9388 165.209 3.13881C164.409 0.938809 165.309 0.538815 167.109 0.238815C171.709 -0.461185 176.209 2.03881 178.509 6.33881C182.409 13.7388 181.809 21.7388 181.109 29.5388C180.309 37.9388 178.309 45.9388 174.009 53.4388C168.009 63.8388 152.409 65.7388 146.009 54.8388C144.409 52.1388 143.709 54.0388 142.809 55.3388C138.809 61.4388 133.509 65.2388 125.809 63.7388C120.309 62.7388 116.809 58.9388 114.509 54.1388C109.209 43.4388 109.909 32.3388 113.009 21.2388C114.709 15.3388 117.009 9.63882 121.309 5.03882C124.509 1.53882 128.309 -0.0611878 133.109 0.938812C135.209 1.43881 136.109 2.13881 134.509 4.43881C127.809 14.0388 124.109 24.6388 123.909 36.3388C123.709 42.7388 124.509 49.1388 127.709 54.8388C130.009 58.9388 131.609 59.1388 134.209 55.5388C138.409 49.6388 141.309 43.1388 140.809 35.6388C140.609 31.2388 140.109 26.9388 140.809 22.5388C141.609 17.4388 144.209 14.1388 148.209 13.1388C150.409 12.6388 151.509 12.9388 151.309 15.6388C151.009 19.2388 150.909 22.9388 150.709 26.5388Z" fill="#EB6C30"/>
<path d="M290.709 52.9386C288.909 55.2386 287.709 57.4386 285.909 59.2386C278.309 66.8386 267.809 65.6386 261.909 56.6386C257.609 50.0386 256.209 42.4386 256.709 34.7386C257.409 25.4386 259.509 16.4386 264.809 8.4386C267.909 3.8386 271.609 0.0385984 278.009 0.838598C281.809 1.3386 282.109 1.93861 280.109 5.03861C272.809 16.3386 269.009 28.5386 270.209 42.0386C270.609 47.1386 271.709 52.1386 274.809 56.5386C276.309 58.6386 277.809 58.7386 279.309 56.8386C284.209 50.8386 287.109 44.0386 286.909 36.2386C286.709 30.9386 286.009 25.7386 287.509 20.5386C288.409 17.3386 290.109 14.9386 293.309 13.6386C296.709 12.3386 297.609 12.9386 297.409 16.5386C296.809 24.8386 297.009 33.0386 298.009 41.3386C298.609 45.9386 299.509 50.4386 301.609 54.6386C303.709 58.8386 305.809 59.1386 308.909 55.5386C313.109 50.6386 313.909 44.4386 314.609 38.3386C315.909 26.3386 315.709 14.3386 311.209 2.8386C310.509 1.0386 311.309 0.638605 312.709 0.438605C316.709 -0.361395 321.609 1.6386 323.809 5.1386C325.709 8.1386 327.009 11.5386 327.309 14.9386C328.309 26.9386 327.109 38.7386 322.109 49.8386C317.909 59.2386 311.109 63.2386 302.409 62.0386C296.709 61.2386 293.609 57.3386 290.709 52.9386Z" fill="#EB6C30"/>
<path d="M172.709 64.0388C185.109 48.2388 195.109 31.9388 204.209 15.1388C204.309 14.9388 204.409 14.7388 204.609 14.5388C207.609 10.1388 207.809 6.03877 203.409 2.43877C202.909 2.03877 202.609 1.43877 202.209 0.938767C210.009 -1.46123 219.409 1.83876 223.909 8.33876C229.809 16.8388 233.709 26.3388 238.609 35.3388C243.609 44.3388 248.909 53.1388 256.609 60.1388C258.809 62.1388 258.009 62.7388 255.709 63.4388C248.609 65.6388 239.909 63.1388 234.809 55.8388C231.509 51.0388 227.609 50.1388 222.509 50.3388C214.509 50.6388 206.509 50.5388 198.409 50.5388C196.009 50.5388 194.609 51.2388 193.209 53.2388C188.609 60.2388 181.909 63.7388 172.709 64.0388ZM213.009 16.5388C208.909 25.8388 205.109 34.7388 200.209 42.9388C199.209 44.6388 199.809 45.1388 201.609 45.1388C209.409 45.0388 217.109 45.0388 224.909 44.9388C226.609 44.9388 227.309 44.3388 226.409 42.7388C221.509 34.4388 218.309 25.2388 213.009 16.5388Z" fill="#EB6C30"/>
<path d="M404.909 62.1387C395.609 66.0387 386.409 63.6387 380.309 55.1387C377.609 51.4387 374.709 50.1387 370.309 50.2387C361.509 50.5387 352.809 50.4387 344.009 50.4387C341.909 50.4387 340.709 51.2387 339.509 52.9387C334.709 60.0387 328.009 63.6387 318.709 63.9387C320.609 61.4387 322.209 59.6387 323.609 57.6387C333.709 43.7387 342.509 29.0387 350.909 14.0387C353.509 9.33873 353.309 5.73872 349.409 2.23872C348.909 1.83872 348.609 1.23872 348.209 0.738725C356.509 -1.56128 365.409 1.63873 370.109 8.53873C373.909 14.0387 376.809 19.9387 379.809 25.8387C383.109 32.4387 386.509 39.0387 390.509 45.2387C394.509 51.5387 399.009 57.1387 404.909 62.1387ZM359.109 16.2387C354.909 25.9387 351.009 34.8387 346.109 43.2387C344.809 45.4387 346.609 45.1387 347.709 45.1387C355.309 45.1387 363.009 45.0387 370.609 45.0387C372.809 45.0387 373.209 44.4387 372.209 42.4387C367.909 33.9387 363.709 25.4387 359.109 16.2387Z" fill="#EB6C30"/>
<path d="M304.909 76.8387C304.709 79.2387 304.509 82.1387 304.409 84.8387C303.509 84.8387 302.609 84.8387 301.709 84.9387C291.209 85.1387 280.209 85.2387 268.809 85.2387C257.409 85.2387 245.609 85.0387 233.609 84.8387C221.609 84.6387 209.409 84.4387 197.309 84.2387C173.009 83.9387 148.609 83.6387 125.809 83.3387C114.409 83.1387 103.409 83.0387 92.9093 82.8387C82.4093 82.6387 72.5093 82.5387 63.4093 82.3387C26.9093 81.7387 2.50928 81.2387 2.50928 81.2387V80.4387C2.50928 80.4387 26.8093 80.0387 63.4093 79.3387C72.5093 79.1387 82.4093 79.0387 92.9093 78.8387C103.409 78.7387 114.409 78.5387 125.809 78.3387C148.609 78.0387 173.009 77.7387 197.309 77.4387C209.509 77.2387 221.609 77.0387 233.609 76.8387C245.609 76.6387 257.409 76.4387 268.809 76.4387C280.209 76.4387 291.209 76.5387 301.709 76.7387C302.809 76.8387 303.809 76.8387 304.909 76.8387Z" fill="#EB6C30"/>
</svg>
