<svg width="42" height="42" viewBox="0 0 42 42" fill="none" xmlns="http://www.w3.org/2000/svg">
<path d="M41.4291 41.4291H0C0 32.6411 0.235385 30.2381 0.706155 28.9826C0.941541 28.6492 1.27993 28.3207 1.72133 27.997C2.16265 27.6733 2.74136 27.3545 3.45731 27.0406C4.17333 26.7269 4.82552 26.4571 5.41402 26.2315C6.00252 26.006 6.80675 25.7068 7.82678 25.3341C8.84681 24.9613 9.65111 24.6671 10.2395 24.4513C10.7496 24.2552 11.2449 24.0296 11.7255 23.7746C12.206 23.5196 12.5151 23.3627 12.6524 23.3039C12.7897 23.4803 12.9171 24.3974 13.0349 26.055C13.1525 27.7125 13.3193 29.6006 13.5351 31.7191C13.7508 33.8376 14.0157 35.4266 14.3295 36.4858C14.4668 36.9566 14.7562 37.3244 15.1975 37.5892C15.6389 37.854 16.0557 38.0355 16.4481 38.1335C16.8404 38.2316 17.0464 38.3101 17.0659 38.3689C17.0856 38.2905 17.2866 37.3195 17.6692 35.4559C18.0517 33.5924 18.4096 31.9447 18.7431 30.5128C18.8867 29.8961 19.0158 29.2258 19.1303 28.6311C19.2453 28.034 19.3455 27.513 19.4311 27.1991L16.8306 24.5985L20.7145 22.0092L24.5985 24.5985L22.0128 27.1842C22.5228 28.5065 23.3094 32.3532 24.3728 37.5529C24.4277 37.8214 24.4833 38.0935 24.5397 38.3689C24.5593 38.3101 24.7653 38.2316 25.1576 38.1335C25.5499 38.0355 25.9667 37.854 26.4081 37.5892C26.8494 37.3244 27.1388 36.9566 27.2761 36.4858C27.59 35.4266 27.8401 33.8376 28.0264 31.7191C28.2128 29.6006 28.3501 27.7125 28.4384 26.055C28.5266 24.3974 28.6394 23.4803 28.7767 23.3039C28.914 23.3627 29.223 23.5196 29.7036 23.7746C30.1842 24.0296 30.6795 24.2552 31.1895 24.4513C31.778 24.6671 32.5823 24.9613 33.6023 25.3341C34.6223 25.7068 35.4266 26.006 36.0151 26.2315C36.6036 26.4571 37.2557 26.7269 37.9718 27.0406C38.6877 27.3545 39.2664 27.6733 39.7077 27.997C40.1491 28.3207 40.4875 28.6492 40.7229 28.9826C40.9779 29.7673 41.1594 31.9251 41.2672 35.4559C41.3053 36.6999 41.3366 37.536 41.3612 38.1934V38.1936C41.4063 39.3997 41.429 40.0039 41.4291 41.4291ZM20.7145 20.7145C14.9944 20.7145 10.3573 16.0774 10.3573 10.3573C10.3573 4.63714 14.9944 0 20.7145 0C26.4347 0 31.0718 4.63714 31.0718 10.3573C31.0718 16.0774 26.4347 20.7145 20.7145 20.7145ZM29.5182 10.422C28.6767 10.5946 27.4737 10.5137 25.9094 10.1793C24.345 9.84475 23.0233 9.45101 21.9445 8.99788C21.2108 8.67421 20.5096 8.302 19.8406 7.88123C19.1717 7.46047 18.4058 6.93176 17.5426 6.29528C16.6795 5.65871 16.0106 5.1894 15.5359 4.88734C15.8812 7.45505 14.6728 9.28918 11.9109 10.3896C11.9325 12.8279 12.8009 14.8993 14.5164 16.604C16.2318 18.3086 18.2978 19.1609 20.7145 19.1609C23.1313 19.1609 25.1973 18.3086 26.9127 16.604C28.6281 14.8993 29.4966 12.8387 29.5182 10.422Z" fill="white"/>
</svg>
