<svg width="335" height="292" viewBox="0 0 335 292" fill="none" xmlns="http://www.w3.org/2000/svg">
<g clip-path="url(#clip0_1491_8460)">
<path d="M270.546 74.9631C271.46 76.2911 271.343 77.8031 271.343 79.3021C271.331 113.788 271.332 148.275 271.308 182.761C271.303 190.176 271.242 190.236 264.524 187.842C256.778 185.082 248.841 182.704 241.417 179.239C233.094 175.355 226.898 177.883 220.819 183.577C216.467 187.654 211.649 191.23 207.149 195.155C203.582 198.267 199.577 198.716 195.254 197.496C184.716 194.523 174.197 191.48 163.668 188.478C163.33 188.382 162.953 188.42 162.101 188.361C164.568 191.296 167.637 192.824 170.312 194.784C178.045 200.451 185.847 206.027 193.727 211.488C199.885 215.756 204.057 215.622 210.074 211.039C215.813 206.668 221.373 202.061 227.089 197.659C230.207 195.258 233.749 194.258 237.602 195.683C247.635 199.392 257.643 203.168 267.661 206.918C263.145 224.262 257.72 241.258 248.4 256.741C244.076 263.924 238.186 268.655 229.583 270.206C213.457 273.114 197.231 275.19 180.969 277.073C164.843 278.94 148.669 280.352 132.477 281.402C121.149 282.136 109.812 282.959 98.4483 283.118C86.7113 283.282 74.9943 284.084 63.2413 283.954C57.1073 283.886 51.0333 283.098 44.9123 283.062C43.7913 283.055 42.6483 282.947 41.8203 282.003C47.3613 268.216 51.4743 254.013 54.1553 239.399C56.3073 227.672 58.0703 215.899 59.1563 204.011C60.3123 191.362 61.5833 178.732 61.3273 166.01C61.2993 164.61 61.6543 163.588 63.0643 163.074C71.6063 159.963 80.1473 156.85 88.6783 153.709C93.0813 152.087 96.8063 153.699 100.158 156.302C105.661 160.577 111 165.062 116.428 169.435C120.933 173.065 126.521 173.671 131.041 170.514C142.069 162.811 152.949 154.897 163.88 147.055C164.021 146.954 164.038 146.681 164.223 146.204C154.591 148.876 144.918 150.88 135.768 154.288C126.639 157.688 119.949 155.128 113.582 148.733C109.902 145.037 105.731 141.826 101.745 138.44C96.8623 134.292 91.6133 134.664 85.9963 136.914C79.0583 139.693 71.9573 142.064 64.9733 144.734C62.2813 145.763 61.2783 145.434 61.2843 142.2C61.3703 97.0801 61.3353 51.9591 61.3543 6.83911C61.3563 2.26211 63.4683 0.0121114 67.8803 0.0101114C112.75 -0.0118886 157.621 0.00711028 202.491 0.0191103C202.737 0.0191103 202.984 0.0961103 203.23 0.13711C205.803 5.94811 206.051 12.2591 207.075 18.3921C208.432 26.5201 208.606 34.7761 209.372 42.9691C209.991 49.5871 208.404 56.1431 208.666 62.7761C208.92 69.1881 210.1 70.6271 216.486 70.0461C224.44 69.3231 232.364 68.3651 240.377 68.6311C249.415 68.9321 258.255 70.2981 266.844 73.1871C268.16 73.6311 269.339 74.3131 270.546 74.9631Z" fill="#FFF2E7"/>
<path d="M41.8199 282.004C55.1459 282.939 68.4959 282.944 81.8339 282.689C94.6489 282.444 107.462 281.865 120.263 281.191C130.556 280.649 140.843 279.899 151.107 278.96C162.221 277.943 173.293 276.465 184.407 275.438C194.67 274.49 204.853 273.006 215.044 271.534C221.929 270.539 228.815 269.457 235.489 267.521C240.261 266.136 243.361 262.271 246.005 258.336C254.515 245.666 259.377 231.383 263.8 216.935C264.637 214.202 265.374 211.435 266.033 208.654C266.267 207.665 266.658 207.07 267.66 206.921C268.863 207.181 269.702 207.619 269.527 209.16C266.563 235.305 263.013 261.277 251.108 285.293C248.763 290.024 245.515 291.71 240.509 291.705C178.31 291.642 116.111 291.669 53.9119 291.656C51.4229 291.655 48.8779 291.796 46.4569 291.345C41.2399 290.373 39.7179 287.084 41.8199 282.004Z" fill="#FFD4B3"/>
<path d="M270.546 74.9632C264.6 74.2612 259.071 71.8462 253.13 70.9512C241.913 69.2612 230.749 69.4452 219.579 70.8942C210.727 72.0432 206.541 72.2652 207.524 60.7212C209.176 41.3152 207.166 22.1352 203.329 3.10418C203.136 2.14718 203.255 1.12818 203.229 0.138184C228.792 19.2232 250.501 41.8912 267.315 69.1012C268.486 70.9962 269.473 73.0062 270.546 74.9632Z" fill="#FF7203"/>
<path d="M52.1409 169.669C51.9359 171.935 50.8179 173.763 48.7129 174.978C35.5579 182.573 22.4309 190.215 9.23293 197.736C5.98093 199.589 2.53293 198.534 0.839926 195.568C-0.801074 192.696 -0.0430744 189.411 3.16293 187.53C16.4799 179.718 29.8279 171.955 43.2749 164.368C47.2979 162.099 52.1279 165.123 52.1409 169.669Z" fill="#FF7203"/>
<path d="M334.143 164.385C333.906 166.807 332.681 168.591 330.596 169.795C317.514 177.351 304.451 184.942 291.327 192.423C288.027 194.304 284.61 193.323 282.877 190.372C281.138 187.412 282.009 184.075 285.427 182.076C298.576 174.386 311.749 166.735 325.005 159.232C329.258 156.824 334.237 159.804 334.143 164.385Z" fill="#FF7203"/>
<path d="M288.073 223.499C290.125 223.495 291.665 224.489 292.926 225.97C302.725 237.469 312.545 248.95 322.28 260.503C324.73 263.411 324.453 267.043 321.941 269.21C319.307 271.482 315.918 271.285 313.324 268.279C303.373 256.746 293.525 245.124 283.665 233.513C282 231.553 281.463 229.316 282.688 226.91C283.8 224.728 285.617 223.584 288.073 223.499Z" fill="#FF7203"/>
<path d="M15.5771 86.2942C17.8291 86.3012 19.4031 87.0282 20.5881 88.4122C30.6541 100.171 40.7511 111.905 50.6971 123.766C53.0471 126.568 52.4671 129.926 49.8541 132.085C47.2761 134.215 43.9531 134.085 41.5241 131.27C31.4931 119.645 21.5791 107.921 11.6471 96.2112C9.95009 94.2112 9.73009 91.9182 10.8621 89.5672C11.8761 87.4612 13.7291 86.5522 15.5771 86.2942Z" fill="#FF7203"/>
<path d="M40.5837 148.564C40.5187 152.332 37.2177 155.197 33.4817 154.283C26.2247 152.507 19.0117 150.535 11.8377 148.449C8.39371 147.448 6.73971 144.235 7.66471 141.172C8.62271 138.001 11.5787 136.18 14.9777 137.028C21.9857 138.776 28.9607 140.66 35.9227 142.585C38.8687 143.4 40.5887 145.357 40.5837 148.564Z" fill="#FF7203"/>
<path d="M319.636 220.217C312.601 218.252 304.624 216.254 296.817 213.732C293.644 212.707 292.908 209.567 293.922 206.527C294.902 203.588 297.359 201.969 300.375 202.689C307.88 204.48 315.336 206.507 322.735 208.701C325.688 209.576 327.05 212.044 326.646 215.154C326.267 218.067 323.475 220.288 319.636 220.217Z" fill="#FF7203"/>
<path d="M100.231 106.688C100.049 104.916 101.247 103.356 102.903 102.103C106.682 99.2431 110.497 96.4301 114.308 93.6121C116.968 91.6451 119.611 91.7851 122.243 93.7031C124.85 95.6031 127.471 98.9361 130.099 98.9491C132.736 98.9621 135.432 95.7091 138.024 93.7831C140.963 91.6001 143.73 91.7881 146.583 93.9491C149.05 95.8171 151.617 98.9551 154.139 98.9541C156.683 98.9531 159.29 95.8611 161.753 93.9721C164.767 91.6621 167.629 91.6621 170.617 93.9801C174.066 96.6561 177.613 99.2061 181.057 101.889C184.435 104.52 185.072 107.752 182.907 110.631C180.598 113.701 177.336 113.947 173.721 111.35C171.201 109.54 168.712 106.458 166.113 106.353C163.761 106.258 161.274 109.425 158.852 111.161C155.046 113.891 153.223 113.865 149.434 111.114C147.024 109.365 144.562 106.336 142.133 106.345C139.701 106.354 137.276 109.422 134.855 111.159C131.048 113.889 129.221 113.866 125.435 111.118C123.025 109.369 120.566 106.337 118.137 106.346C115.705 106.355 113.282 109.427 110.857 111.157C108.653 112.729 106.402 113.988 103.602 112.57C101.378 111.443 100.284 109.648 100.231 106.688Z" fill="#FF7203"/>
<path d="M98.7541 44.8731C101.967 44.7231 103.625 47.3301 105.642 49.2901C109.243 52.7901 109.209 52.8201 112.645 49.3851C113.704 48.3261 114.717 47.2101 115.859 46.2491C118.17 44.3041 121.628 44.3591 123.719 46.2761C126.155 48.5091 126.491 51.6811 124.343 54.3251C122.933 56.0601 121.332 57.6761 119.636 59.1351C117.969 60.5681 117.596 61.6511 119.52 63.2041C121.161 64.5291 122.635 66.0971 124.01 67.7051C126.4 70.4991 126.27 73.7041 123.833 76.0891C121.394 78.4771 118.283 78.4811 115.427 76.1171C113.152 74.2341 111.506 70.3301 108.892 70.5531C106.673 70.7421 104.789 74.2211 102.647 76.1211C99.8641 78.5891 96.6271 78.5111 94.2891 76.0691C92.0771 73.7601 92.1381 70.2301 94.4091 67.6271C96.2801 65.4811 99.8801 63.8601 99.8481 61.3311C99.8161 58.8331 96.2621 57.1921 94.3761 55.0601C92.5271 52.9691 92.1651 50.5821 93.1941 48.0961C94.1521 45.7791 96.1201 44.8011 98.7541 44.8731Z" fill="#FF7203"/>
<path d="M191.758 50.3941C191.73 53.5941 189.567 55.2461 187.734 57.0911C183.617 61.2321 183.611 61.2261 187.711 65.3311C192.337 69.9621 192.941 73.1041 189.788 76.1351C186.742 79.0621 183.741 78.4431 179.256 73.9631C175.062 69.7751 175.062 69.7751 170.749 74.0791C166.338 78.4811 163.11 79.0781 160.247 76.0241C157.607 73.2071 158.3 69.7341 162.301 65.7241C166.648 61.3681 166.647 61.3701 162.176 56.8791C161.472 56.1721 160.721 55.4971 160.107 54.7171C158.12 52.1921 158.205 48.5691 160.243 46.4911C162.276 44.4171 165.927 44.2781 168.475 46.1961C170.933 48.0461 172.556 52.1931 175.325 51.9281C177.676 51.7031 179.685 48.1951 181.903 46.2031C183.913 44.3981 186.299 44.4211 188.55 45.4711C190.604 46.4291 191.581 48.3451 191.758 50.3941Z" fill="#FF7203"/>
</g>
<defs>
<clipPath id="clip0_1491_8460">
<rect width="335" height="292" fill="white"/>
</clipPath>
</defs>
</svg>
