<svg width="28" height="27" viewBox="0 0 28 27" fill="none" xmlns="http://www.w3.org/2000/svg">
<path d="M8.10666 2.43992L6.2 0.533252C3 2.97325 0.893332 6.73325 0.706665 10.9999H3.37333C3.46778 9.309 3.94243 7.66116 4.76196 6.1791C5.58148 4.69704 6.72475 3.41892 8.10666 2.43992ZM24.6267 10.9999H27.2933C27.0933 6.73325 24.9867 2.97325 21.8 0.533252L19.9067 2.43992C21.2827 3.42374 22.4208 4.70327 23.2376 6.18454C24.0544 7.66581 24.529 9.31121 24.6267 10.9999ZM22 11.6666C22 7.57325 19.8133 4.14659 16 3.23992V0.333252H12V3.23992C8.17333 4.14659 6 7.55992 6 11.6666V18.3333L3.33333 20.9999V22.3333H24.6667V20.9999L22 18.3333V11.6666ZM14 26.3333C14.1867 26.3333 14.36 26.3199 14.5333 26.2799C15.4 26.0933 16.1067 25.5066 16.4533 24.7066C16.5867 24.3866 16.6533 24.0399 16.6533 23.6666H11.32C11.3333 25.1333 12.52 26.3333 14 26.3333Z" fill="#FF7203"/>
</svg>
