<?xml version="1.0" encoding="utf-8"?>
<!-- Generator: Adobe Illustrator 18.1.1, SVG Export Plug-In . SVG Version: 6.00 Build 0)  -->
<svg version="1.1" id="Layer_1" xmlns="http://www.w3.org/2000/svg" xmlns:xlink="http://www.w3.org/1999/xlink" x="0px" y="0px"
	 viewBox="0 0 64 64" enable-background="new 0 0 64 64" xml:space="preserve">
<path fill="#6382FF" d="M13.5,35.2c0-6.6,0-13.3,0-19.9c0-1.7,1.1-3.1,2.8-3.4c0.1,0,0.3,0,0.4,0c1.3,0,2.6,0,3.9,0
	c0.5,0,1,0.3,1.1,0.8c0.1,0.5-0.1,1-0.5,1.3c-0.2,0.1-0.5,0.2-0.7,0.2c-1.1,0-2.3,0-3.4,0c-0.2,0-0.4,0-0.6,0.1
	c-0.4,0.1-0.7,0.5-0.7,1c0,0.1,0,0.2,0,0.3c0,13.2,0,26.4,0,39.6c0,0.7,0.5,1.2,1.2,1.2c9.1,0,18.3,0,27.4,0c0.7,0,1.3-0.5,1.2-1.2
	c0-0.9,0-1.7,0-2.6c0-0.8,0.5-1.3,1.2-1.2c0.6,0,1.1,0.5,1.1,1.1c0,1.1,0,2.1,0,3.2c-0.1,1.5-1.4,2.9-2.9,3.1c-0.2,0-0.5,0-0.7,0
	c-9.1,0-18.2,0-27.3,0c-1.5,0-2.7-0.8-3.3-2.2c-0.2-0.4-0.2-0.8-0.2-1.3C13.5,48.5,13.5,41.8,13.5,35.2z"/>
<path fill="#6382FF" d="M30.8,17.5c-1.8,0-3.6,0-5.5,0c-1,0-1.7-0.6-1.9-1.5c0-0.2-0.1-0.4-0.1-0.6c0-1.6,0-3.2,0-4.8
	c0-0.6,0.2-1.1,0.5-1.5c0.4-0.4,0.9-0.6,1.4-0.6c3.7,0,7.4,0,11.1,0c1.1,0,1.9,0.8,1.9,2c0,1.7,0,3.3,0,5c0,1.2-0.8,2-2,2
	C34.4,17.5,32.6,17.5,30.8,17.5z M30.8,10.8c-1.6,0-3.3,0-4.9,0c-0.2,0-0.3,0.1-0.3,0.3c0,1.3,0,2.5,0,3.8c0,0.2,0.1,0.3,0.3,0.3
	c3.3,0,6.5,0,9.8,0c0.2,0,0.3-0.1,0.3-0.3c0-1.3,0-2.5,0-3.8c0-0.3-0.1-0.3-0.3-0.3C34,10.8,32.4,10.8,30.8,10.8z"/>
<path fill="#6382FF" d="M48,21.9c0,2.3,0,4.5,0,6.8c0,0.9-0.9,1.4-1.6,1.1c-0.4-0.2-0.6-0.6-0.6-1c0-0.1,0-0.2,0-0.3
	c0-4.3,0-8.7,0-13c0-0.9-0.6-1.3-1.3-1.3c-1.2,0-2.3,0-3.5,0c-0.6,0-1-0.4-1.1-0.9c-0.1-0.5,0.2-1.1,0.7-1.3
	c0.2-0.1,0.3-0.1,0.5-0.1c1.3,0,2.6,0,3.8,0c1.8,0,3.3,1.5,3.3,3.3C48,17.4,48,19.6,48,21.9z"/>
<path fill="#6382FF" d="M30.8,25.2c-3.4,0-6.8,0-10.2,0c-0.6,0-1.1-0.4-1.2-0.9c-0.1-0.6,0.4-1.3,1-1.3c0.1,0,0.2,0,0.3,0
	c6.8,0,13.5,0,20.3,0c0.6,0,1,0.2,1.2,0.7c0.3,0.7-0.2,1.5-1,1.5c-1.5,0-2.9,0-4.4,0C34.7,25.2,32.7,25.2,30.8,25.2z"/>
<path fill="#6382FF" d="M27.4,29.2c2.3,0,4.6,0,6.9,0c0.9,0,1.4,0.8,1.1,1.6c-0.2,0.4-0.5,0.6-1,0.7c-0.1,0-0.2,0-0.2,0
	c-4.5,0-9.1,0-13.6,0c-0.4,0-0.7-0.1-1-0.4c-0.3-0.4-0.4-0.8-0.2-1.2c0.2-0.5,0.5-0.7,1-0.7c0.4,0,0.8,0,1.3,0
	C23.6,29.2,25.5,29.2,27.4,29.2z"/>
<path fill="#6382FF" d="M27.4,44.1c-2.3,0-4.5,0-6.8,0c-0.7,0-1.1-0.3-1.3-0.9c-0.2-0.7,0.3-1.4,1-1.4c0.1,0,0.1,0,0.2,0
	c4.6,0,9.2,0,13.8,0c0.4,0,0.8,0.1,1,0.5c0.5,0.8,0,1.7-1,1.8c-0.5,0-0.9,0-1.4,0C31.1,44.1,29.3,44.1,27.4,44.1z"/>
<path fill="#6382FF" d="M26.2,37.8c-1.9,0-3.8,0-5.7,0c-0.6,0-1-0.3-1.1-0.9c-0.1-0.6,0.3-1.2,0.9-1.4c0.2,0,0.3,0,0.5,0
	c3.6,0,7.3,0,10.9,0c0.3,0,0.5,0,0.8,0.1c0.5,0.3,0.7,0.8,0.6,1.3c-0.1,0.5-0.6,0.9-1.1,0.9C30,37.8,28.1,37.8,26.2,37.8z"/>
<path fill="#6382FF" d="M25.4,50.4c-1.6,0-3.3,0-4.9,0c-0.8,0-1.4-0.7-1.1-1.5c0.1-0.5,0.6-0.8,1.1-0.8c0.6,0,1.3,0,1.9,0
	c2.6,0,5.2,0,7.8,0c0.4,0,0.8,0.1,1.1,0.5c0.3,0.4,0.3,0.8,0.1,1.2c-0.2,0.4-0.6,0.6-1,0.6C28.8,50.4,27.1,50.4,25.4,50.4z"/>
<path fill="#6382FF" d="M30.8,14.1c-1,0-2,0-3,0c-0.7,0-1.2-0.5-1.2-1.1c0-0.7,0.5-1.1,1.2-1.1c2,0,4,0,5.9,0c0.7,0,1.2,0.5,1.2,1.1
	c0,0.6-0.5,1.1-1.2,1.1C32.7,14.1,31.8,14.1,30.8,14.1z"/>
<g>
	<path fill="#6382FF" d="M46.7,44.6c-0.4,0.6-1.3,0.6-1.8,0.1l-6.3-6.3c-0.5-0.5-0.5-1.3,0-1.8c0.5-0.5,1.3-0.5,1.8,0l5.2,5.2
		l9.8-13.6c0.4-0.6,1.2-0.7,1.7-0.3c0.6,0.4,0.7,1.2,0.3,1.7L46.7,44.6z"/>
</g>
</svg>
