<svg width="22" height="19" viewBox="0 0 22 19" fill="none" xmlns="http://www.w3.org/2000/svg">
<g clip-path="url(#clip0_714_4501)">
<path d="M15.0002 3.73445C15.0001 4.33617 14.7621 4.91345 14.3382 5.34045C13.3622 6.32445 12.4152 7.35045 11.4022 8.29845C11.2891 8.40149 11.1407 8.45717 10.9878 8.454C10.8348 8.45084 10.6889 8.38907 10.5802 8.28145L7.6622 5.34145C7.23803 4.91417 7 4.33652 7 3.73445C7 3.13239 7.23803 2.55474 7.6622 2.12745C7.87385 1.91424 8.1256 1.74501 8.40295 1.62953C8.6803 1.51405 8.97777 1.4546 9.2782 1.4546C9.57863 1.4546 9.87609 1.51405 10.1534 1.62953C10.4307 1.74501 10.6825 1.91424 10.8942 2.12745L11.0002 2.23445L11.1062 2.12745C11.4239 1.80632 11.8299 1.58699 12.2727 1.49738C12.7154 1.40777 13.1748 1.45194 13.5924 1.62427C14.01 1.79659 14.3668 2.08928 14.6175 2.46506C14.8682 2.84084 15.0014 3.28273 15.0002 3.73445Z" stroke="#FF7203" stroke-width="1.5" stroke-linejoin="round"/>
<path d="M17 17.4541L20.824 13.6301C20.9366 13.5177 20.9999 13.3652 21 13.2061V7.9541C21 7.55628 20.842 7.17475 20.5607 6.89344C20.2794 6.61214 19.8978 6.4541 19.5 6.4541C19.1022 6.4541 18.7206 6.61214 18.4393 6.89344C18.158 7.17475 18 7.55628 18 7.9541V12.4541" stroke="#FF7203" stroke-width="1.5" stroke-linecap="round" stroke-linejoin="round"/>
<path d="M17 13.4541L17.858 12.5961C17.9031 12.5511 17.9388 12.4976 17.9632 12.4388C17.9876 12.3799 18.0001 12.3168 18 12.2531C17.9999 12.1632 17.9747 12.0751 17.9274 11.9986C17.8801 11.9221 17.8124 11.8603 17.732 11.8201L17.289 11.5991C16.9137 11.4114 16.4889 11.3466 16.0747 11.4137C15.6604 11.4808 15.2778 11.6765 14.981 11.9731L14.086 12.8681C13.7109 13.2431 13.5001 13.7517 13.5 14.2821V17.4541M5 17.4541L1.176 13.6301C1.06345 13.5177 1.00014 13.3652 1 13.2061V7.9541C1 7.55628 1.15804 7.17475 1.43934 6.89344C1.72064 6.61214 2.10218 6.4541 2.5 6.4541C2.89782 6.4541 3.27936 6.61214 3.56066 6.89344C3.84196 7.17475 4 7.55628 4 7.9541V12.4541" stroke="#FF7203" stroke-width="1.5" stroke-linecap="round" stroke-linejoin="round"/>
<path d="M5 13.4548L4.142 12.5968C4.09697 12.5518 4.06125 12.4983 4.03688 12.4394C4.01252 12.3806 3.99999 12.3175 4 12.2538C4 12.0708 4.104 11.9038 4.268 11.8208L4.711 11.5998C5.08631 11.4122 5.51114 11.3473 5.92534 11.4144C6.33955 11.4815 6.72216 11.6772 7.019 11.9738L7.914 12.8688C8.2891 13.2438 8.49989 13.7524 8.5 14.2828V17.4548" stroke="#FF7203" stroke-width="1.5" stroke-linecap="round" stroke-linejoin="round"/>
</g>
<defs>
<clipPath id="clip0_714_4501">
<rect width="22" height="19" fill="white"/>
</clipPath>
</defs>
</svg>
