<svg width="22" height="22" viewBox="0 0 22 22" fill="none" xmlns="http://www.w3.org/2000/svg">
<g clip-path="url(#clip0_714_4506)">
<path d="M20.9999 12.1113L17.6665 2.11133" stroke="#FF7203" stroke-width="2" stroke-linecap="round" stroke-linejoin="round"/>
<path d="M1 12.1113L4.33333 2.11133" stroke="#FF7203" stroke-width="2" stroke-linecap="round" stroke-linejoin="round"/>
<path d="M11 9.88889V1M21 12.1111V19.8889C21 20.1836 20.8829 20.4662 20.6746 20.6746C20.4662 20.8829 20.1836 21 19.8889 21H2.11111C1.81643 21 1.53381 20.8829 1.32544 20.6746C1.11706 20.4662 1 20.1836 1 19.8889V12.1111H6.55556C6.55556 13.2899 7.02381 14.4203 7.8573 15.2538C8.6908 16.0873 9.82126 16.5556 11 16.5556C12.1787 16.5556 13.3092 16.0873 14.1427 15.2538C14.9762 14.4203 15.4444 13.2899 15.4444 12.1111H21Z" stroke="#FF7203" stroke-width="2" stroke-linecap="round" stroke-linejoin="round"/>
<path d="M14.3336 4.33333L11.0003 1L7.66699 4.33333" stroke="#FF7203" stroke-width="2" stroke-linecap="round" stroke-linejoin="round"/>
</g>
<defs>
<clipPath id="clip0_714_4506">
<rect width="22" height="22" fill="white"/>
</clipPath>
</defs>
</svg>
