<svg width="17" height="19" viewBox="0 0 17 19" fill="none" xmlns="http://www.w3.org/2000/svg">
<g clip-path="url(#clip0_714_4511)">
<path d="M14.45 2.75215H12.75V1.85215C12.75 1.61345 12.6604 1.38454 12.501 1.21575C12.3416 1.04697 12.1254 0.952148 11.9 0.952148C11.6746 0.952148 11.4584 1.04697 11.299 1.21575C11.1396 1.38454 11.05 1.61345 11.05 1.85215V2.75215H5.95V1.85215C5.95 1.61345 5.86045 1.38454 5.70104 1.21575C5.54164 1.04697 5.32543 0.952148 5.1 0.952148C4.87457 0.952148 4.65837 1.04697 4.49896 1.21575C4.33955 1.38454 4.25 1.61345 4.25 1.85215V2.75215H2.55C1.8737 2.75215 1.2251 3.03661 0.746878 3.54296C0.26866 4.04931 0 4.73606 0 5.45215V16.2521C0 16.9682 0.26866 17.655 0.746878 18.1613C1.2251 18.6677 1.8737 18.9521 2.55 18.9521H14.45C15.1263 18.9521 15.7749 18.6677 16.2531 18.1613C16.7313 17.655 17 16.9682 17 16.2521V5.45215C17 4.73606 16.7313 4.04931 16.2531 3.54296C15.7749 3.03661 15.1263 2.75215 14.45 2.75215ZM15.3 16.2521C15.3 16.4908 15.2104 16.7198 15.051 16.8885C14.8916 17.0573 14.6754 17.1521 14.45 17.1521H2.55C2.32457 17.1521 2.10837 17.0573 1.94896 16.8885C1.78955 16.7198 1.7 16.4908 1.7 16.2521V9.95215H15.3V16.2521ZM15.3 8.15215H1.7V5.45215C1.7 5.21345 1.78955 4.98454 1.94896 4.81575C2.10837 4.64697 2.32457 4.55215 2.55 4.55215H4.25V5.45215C4.25 5.69084 4.33955 5.91976 4.49896 6.08854C4.65837 6.25733 4.87457 6.35215 5.1 6.35215C5.32543 6.35215 5.54164 6.25733 5.70104 6.08854C5.86045 5.91976 5.95 5.69084 5.95 5.45215V4.55215H11.05V5.45215C11.05 5.69084 11.1396 5.91976 11.299 6.08854C11.4584 6.25733 11.6746 6.35215 11.9 6.35215C12.1254 6.35215 12.3416 6.25733 12.501 6.08854C12.6604 5.91976 12.75 5.69084 12.75 5.45215V4.55215H14.45C14.6754 4.55215 14.8916 4.64697 15.051 4.81575C15.2104 4.98454 15.3 5.21345 15.3 5.45215V8.15215Z" fill="#FF7203"/>
</g>
<defs>
<clipPath id="clip0_714_4511">
<rect width="17" height="19" fill="white"/>
</clipPath>
</defs>
</svg>
