<svg width="20" height="19" viewBox="0 0 20 19" fill="none" xmlns="http://www.w3.org/2000/svg">
<g clip-path="url(#clip0_714_4517)">
<path d="M17.6459 2.68871L17.6467 2.68946C19.713 4.76459 19.7101 7.98649 17.6499 10.0458L9.97313 17.7226L2.29646 10.0459C0.23594 7.98626 0.23354 4.76426 2.29558 2.69346L2.29667 2.69235C2.77871 2.20627 3.35211 1.8203 3.98389 1.55668C4.61553 1.2931 5.29306 1.15702 5.97749 1.15625C7.26953 1.15639 8.51439 1.6418 9.46548 2.51633L9.97306 2.98306L10.4807 2.5164C11.4319 1.64195 12.6768 1.15654 13.9689 1.15625C14.6525 1.15682 15.3292 1.29248 15.9602 1.55543C16.5913 1.81842 17.1642 2.20356 17.6459 2.68871Z" stroke="#FF7203" stroke-width="1.5"/>
</g>
<defs>
<clipPath id="clip0_714_4517">
<rect width="20" height="19" fill="white"/>
</clipPath>
</defs>
</svg>
