<svg width="17" height="21" viewBox="0 0 17 21" fill="none" xmlns="http://www.w3.org/2000/svg">
<g clip-path="url(#clip0_714_4499)">
<path d="M13.2923 9.03125C13.6391 9.13877 13.9693 9.28468 14.2829 9.46899C14.5965 9.6533 14.9248 9.93361 15.2679 10.3099C15.611 10.6862 15.9043 11.1297 16.1478 11.6404C16.3913 12.1511 16.5942 12.8116 16.7565 13.6218C16.9188 14.432 17 15.3401 17 16.3461C17 17.5288 16.6311 18.5406 15.8932 19.3815C15.1554 20.2224 14.2663 20.6429 13.2259 20.6429H3.77409C2.73372 20.6429 1.84462 20.2224 1.10677 19.3815C0.368924 18.5406 0 17.5288 0 16.3461C0 15.3401 0.0811632 14.432 0.24349 13.6218C0.405816 12.8116 0.608724 12.1511 0.852214 11.6404C1.0957 11.1297 1.389 10.6862 1.7321 10.3099C2.0752 9.93361 2.40354 9.6533 2.71712 9.46899C3.03071 9.28468 3.36089 9.13877 3.70768 9.03125C3.12478 8.0713 2.83333 7.02687 2.83333 5.89796C2.83333 5.09928 2.98275 4.33707 3.28158 3.61135C3.5804 2.88562 3.98438 2.25781 4.49349 1.72792C5.0026 1.19802 5.60579 0.777563 6.30306 0.466538C7.00033 0.155513 7.73264 0 8.5 0C9.26736 0 9.99967 0.155513 10.6969 0.466538C11.3942 0.777563 11.9974 1.19802 12.5065 1.72792C13.0156 2.25781 13.4196 2.88562 13.7184 3.61135C14.0173 4.33707 14.1667 5.09928 14.1667 5.89796C14.1667 7.02687 13.8752 8.0713 13.2923 9.03125ZM8.5 1.47449C7.32682 1.47449 6.3252 1.90647 5.49512 2.77043C4.66504 3.63439 4.25 4.6769 4.25 5.89796C4.25 7.11902 4.66504 8.16153 5.49512 9.02549C6.3252 9.88945 7.32682 10.3214 8.5 10.3214C9.67318 10.3214 10.6748 9.88945 11.5049 9.02549C12.335 8.16153 12.75 7.11902 12.75 5.89796C12.75 4.6769 12.335 3.63439 11.5049 2.77043C10.6748 1.90647 9.67318 1.47449 8.5 1.47449ZM13.2259 19.1684C13.8752 19.1684 14.4304 18.8938 14.8916 18.3447C15.3528 17.7956 15.5833 17.1294 15.5833 16.3461C15.5833 14.5107 15.2937 13.0631 14.7145 12.0033C14.1353 10.9435 13.3034 10.3867 12.2188 10.3329C11.1489 11.3083 9.90929 11.7959 8.5 11.7959C7.09071 11.7959 5.85113 11.3083 4.78125 10.3329C3.69661 10.3867 2.86469 10.9435 2.28548 12.0033C1.70627 13.0631 1.41667 14.5107 1.41667 16.3461C1.41667 17.1294 1.64724 17.7956 2.1084 18.3447C2.56955 18.8938 3.12478 19.1684 3.77409 19.1684H13.2259Z" fill="#FF7203"/>
</g>
<defs>
<clipPath id="clip0_714_4499">
<rect width="17" height="21" fill="white"/>
</clipPath>
</defs>
</svg>
