<svg width="16" height="21" viewBox="0 0 16 21" fill="none" xmlns="http://www.w3.org/2000/svg">
<g clip-path="url(#clip0_714_4513)">
<path d="M0.750074 8.95052L0.750081 8.94715C0.750081 4.95566 4.00296 1.70215 8 1.70215C11.9967 1.70215 15.2499 4.95536 15.2499 8.95215V8.95553C15.2631 11.8819 13.4294 14.7006 11.4569 16.8615C10.4847 17.9266 9.50929 18.7987 8.7762 19.4047C8.46575 19.6614 8.19981 19.8694 7.99736 20.0233C7.29126 19.4949 5.84907 18.3465 4.43087 16.7818C2.50194 14.6537 0.736867 11.8856 0.750074 8.95052ZM3.25004 8.95215C3.25004 11.5764 5.3758 13.7021 8 13.7021C10.6242 13.7021 12.75 11.5764 12.75 8.95215C12.75 6.32794 10.6242 4.20215 8 4.20215C5.3758 4.20215 3.25004 6.32794 3.25004 8.95215Z" stroke="#FF7203" stroke-width="1.5"/>
</g>
<defs>
<clipPath id="clip0_714_4513">
<rect width="16" height="21" fill="white"/>
</clipPath>
</defs>
</svg>
