<svg width="20" height="22" viewBox="0 0 20 22" fill="none" xmlns="http://www.w3.org/2000/svg">
<g clip-path="url(#clip0_714_4515)">
<path d="M18.3025 13.5048C18.5239 13.7237 18.6995 13.9836 18.8191 14.2696C18.9388 14.5556 19.0003 14.862 19 15.1715C19 15.7962 18.7487 16.3953 18.3014 16.8371C17.8542 17.2788 17.2475 17.527 16.615 17.527H3.385C2.75246 17.527 2.14583 17.2788 1.69855 16.8371C1.25128 16.3953 1 15.7962 1 15.1715C0.999726 14.862 1.06118 14.5556 1.18086 14.2696C1.30054 13.9836 1.4761 13.7237 1.6975 13.5048L3.25 11.9715V7.52702C3.25 5.75891 3.96116 4.06322 5.22703 2.81297C6.4929 1.56273 8.20979 0.860352 10 0.860352C11.7902 0.860352 13.5071 1.56273 14.773 2.81297C16.0388 4.06322 16.75 5.75891 16.75 7.52702V11.9715L18.3025 13.5048ZM13.375 17.527H6.625C6.625 18.4111 6.98058 19.2589 7.61351 19.884C8.24645 20.5092 9.10489 20.8604 10 20.8604C10.8951 20.8604 11.7536 20.5092 12.3865 19.884C13.0194 19.2589 13.375 18.4111 13.375 17.527Z" stroke="#FF7203" stroke-width="1.5" stroke-linecap="round" stroke-linejoin="round"/>
</g>
<defs>
<clipPath id="clip0_714_4515">
<rect width="20" height="22" fill="white"/>
</clipPath>
</defs>
</svg>
