<svg width="107" height="106" viewBox="0 0 107 106" fill="none" xmlns="http://www.w3.org/2000/svg">
<g clip-path="url(#clip0_329_9045)">
<path d="M56.5798 6.75088C55.4445 6.66705 54.3064 6.62507 53.168 6.625V0C54.47 0.000634858 55.7716 0.0492512 57.0701 0.14575L56.5798 6.75088ZM69.8563 9.73213C67.7327 8.91264 65.5516 8.25056 63.3307 7.75125L64.7816 1.28525C67.319 1.855 69.8166 2.61025 72.2413 3.551L69.8563 9.73213ZM78.9326 14.4359C77.9854 13.8042 77.0153 13.2075 76.0242 12.6471L79.2903 6.88338C81.5555 8.16687 83.7233 9.61502 85.7762 11.2161L81.7018 16.4433C80.8037 15.7425 79.8799 15.0752 78.9326 14.4425V14.4359ZM91.0828 26.2946C89.7724 24.4328 88.3264 22.6702 86.7567 21.0211L91.5532 16.4499C93.342 18.338 94.9982 20.3586 96.5021 22.4786L91.0828 26.2946ZM96.0118 35.2516C95.577 34.2013 95.1041 33.1671 94.5941 32.1511L100.51 29.1699C101.68 31.4958 102.677 33.905 103.491 36.3779L97.1977 38.4515C96.8417 37.3707 96.4461 36.3034 96.0118 35.2516ZM99.5231 51.8605C99.4695 49.5838 99.2481 47.3141 98.8606 45.0699L105.386 43.9436C105.83 46.5009 106.088 49.0979 106.155 51.6949L99.5297 51.8605H99.5231ZM98.6552 62.0498C98.8738 60.9235 99.0527 59.8039 99.1918 58.671L105.77 59.4859C105.452 62.0706 104.943 64.6283 104.247 67.1378L97.8602 65.3689C98.165 64.2757 98.43 63.1694 98.6552 62.0498ZM92.3482 77.8106C93.5672 75.8894 94.6405 73.8754 95.568 71.7951L101.623 74.4783C100.563 76.8633 99.3376 79.1555 97.9463 81.355L92.3482 77.8106ZM85.9617 85.7938C86.77 84.9855 87.5451 84.1508 88.2805 83.2895L93.3022 87.6156C92.4518 88.6017 91.5657 89.5563 90.6456 90.4776L85.9617 85.7938Z" fill="#FF7203"/>
<path d="M53.1685 6.625C45.5424 6.62555 38.034 8.50681 31.3085 12.1021C24.583 15.6975 18.848 20.8959 14.6114 27.237C10.3748 33.5781 7.76736 40.8662 7.02006 48.4557C6.27276 56.0451 7.40866 63.7018 10.3271 70.7474C13.2456 77.793 17.8566 84.0102 23.7517 88.8482C29.6468 93.6862 36.644 96.9958 44.1236 98.4837C51.6033 99.9717 59.3344 99.5921 66.6322 97.3786C73.9301 95.1651 80.5695 91.186 85.9623 85.7937L90.6462 90.4776C84.4832 96.644 76.8943 101.195 68.552 103.728C60.2098 106.26 51.3716 106.696 42.8207 104.996C34.2698 103.297 26.2701 99.514 19.5304 93.9837C12.7907 88.4535 7.51919 81.3462 4.18284 73.2916C0.846482 65.2371 -0.451668 56.484 0.403406 47.8078C1.25848 39.1316 4.24038 30.8003 9.0849 23.552C13.9294 16.3037 20.487 10.3622 28.1766 6.25402C35.8661 2.14581 44.4503 -0.00231035 53.1685 1.86466e-06V6.625Z" fill="#FF7203"/>
<path d="M49.8555 19.875C50.734 19.875 51.5765 20.224 52.1978 20.8452C52.819 21.4664 53.168 22.309 53.168 23.1875V57.7038L74.686 69.9998C75.4266 70.4465 75.9631 71.1653 76.1808 72.0024C76.3985 72.8395 76.2801 73.7286 75.851 74.4796C75.4218 75.2306 74.716 75.7839 73.8842 76.0214C73.0525 76.2588 72.1609 76.1615 71.4 75.7503L48.2125 62.5003C47.7055 62.2107 47.284 61.7922 46.9909 61.2873C46.6977 60.7823 46.5432 60.2089 46.543 59.625V23.1875C46.543 22.309 46.892 21.4664 47.5132 20.8452C48.1344 20.224 48.9769 19.875 49.8555 19.875Z" fill="#FF7203"/>
</g>
<defs>
<clipPath id="clip0_329_9045">
<rect width="106" height="106" fill="white" transform="translate(0.167969)"/>
</clipPath>
</defs>
</svg>
