<svg width="28" height="42" viewBox="0 0 28 42" fill="none" xmlns="http://www.w3.org/2000/svg">
<path d="M11.944 0.699999H15.584V42H11.944V0.699999ZM13.82 36.484C12.0467 36.484 10.3573 36.288 8.752 35.896C7.14667 35.504 5.71867 34.916 4.468 34.132C3.236 33.348 2.26533 32.3773 1.556 31.22C0.846667 30.044 0.492 28.6907 0.492 27.16C0.492 27.048 0.492 26.936 0.492 26.824C0.492 26.712 0.492 26.6093 0.492 26.516H7.828C7.828 26.6093 7.828 26.6933 7.828 26.768C7.828 26.824 7.828 26.908 7.828 27.02C7.828 28.2333 8.37867 29.148 9.48 29.764C10.6 30.3613 12.112 30.66 14.016 30.66C15.08 30.66 16.0693 30.548 16.984 30.324C17.9173 30.1 18.664 29.7547 19.224 29.288C19.8027 28.8213 20.092 28.224 20.092 27.496C20.092 26.32 19.4853 25.48 18.272 24.976C17.0587 24.472 15.1733 24.0147 12.616 23.604C11.1973 23.3613 9.788 23.0347 8.388 22.624C7.00667 22.2133 5.74667 21.6627 4.608 20.972C3.488 20.2813 2.58267 19.4227 1.892 18.396C1.22 17.3693 0.884 16.1187 0.884 14.644C0.884 12.684 1.472 11.0413 2.648 9.716C3.824 8.372 5.392 7.35467 7.352 6.664C9.33067 5.97333 11.5053 5.628 13.876 5.628C16.1533 5.628 18.2627 6.00133 20.204 6.748C22.164 7.49466 23.7413 8.568 24.936 9.968C26.1493 11.368 26.756 13.0573 26.756 15.036C26.756 15.1107 26.756 15.1947 26.756 15.288C26.756 15.3627 26.756 15.428 26.756 15.484H19.476C19.476 15.428 19.476 15.372 19.476 15.316C19.476 15.26 19.476 15.1947 19.476 15.12C19.476 14.2613 19.2053 13.5613 18.664 13.02C18.1227 12.4787 17.4227 12.0773 16.564 11.816C15.7053 11.5547 14.8093 11.424 13.876 11.424C13.0173 11.424 12.14 11.5173 11.244 11.704C10.3667 11.872 9.62933 12.18 9.032 12.628C8.43467 13.0573 8.136 13.664 8.136 14.448C8.136 15.1947 8.43467 15.8013 9.032 16.268C9.648 16.7347 10.5067 17.1267 11.608 17.444C12.7093 17.7427 13.988 18.0133 15.444 18.256C16.788 18.48 18.1507 18.788 19.532 19.18C20.932 19.572 22.2107 20.0947 23.368 20.748C24.544 21.4013 25.4867 22.26 26.196 23.324C26.9053 24.3693 27.26 25.6667 27.26 27.216C27.26 28.8587 26.8867 30.2587 26.14 31.416C25.3933 32.5733 24.376 33.5347 23.088 34.3C21.8187 35.0467 20.3813 35.5973 18.776 35.952C17.1893 36.3067 15.5373 36.484 13.82 36.484Z" fill="white"/>
</svg>
