<svg width="30" height="30" viewBox="0 0 30 30" fill="none" xmlns="http://www.w3.org/2000/svg">
<path d="M6.75195 22.5142C7.16617 22.5142 7.50195 22.1784 7.50195 21.7642C7.50195 21.3499 7.16617 21.0142 6.75195 21.0142C6.33774 21.0142 6.00195 21.3499 6.00195 21.7642C6.00195 22.1784 6.33774 22.5142 6.75195 22.5142Z" fill="#6382FF"/>
<path d="M10.377 22.5142C10.7912 22.5142 11.127 22.1784 11.127 21.7642C11.127 21.3499 10.7912 21.0142 10.377 21.0142C9.96274 21.0142 9.62695 21.3499 9.62695 21.7642C9.62695 22.1784 9.96274 22.5142 10.377 22.5142Z" fill="#6382FF"/>
<path d="M14.001 22.5142C14.4152 22.5142 14.751 22.1784 14.751 21.7642C14.751 21.3499 14.4152 21.0142 14.001 21.0142C13.5868 21.0142 13.251 21.3499 13.251 21.7642C13.251 22.1784 13.5868 22.5142 14.001 22.5142Z" fill="#6382FF"/>
<path d="M21.9599 14.0898H17.4609C17.0467 14.0898 16.7109 14.4256 16.7109 14.8398C16.7109 15.2541 17.0467 15.5898 17.4609 15.5898H21.9599C22.3742 15.5898 22.7099 15.2541 22.7099 14.8398C22.7099 14.4256 22.3742 14.0898 21.9599 14.0898Z" fill="#6382FF"/>
<path d="M21.9599 27.938H17.4609C17.0467 27.938 16.7109 28.2738 16.7109 28.688C16.7109 29.1022 17.0467 29.438 17.4609 29.438H21.9599C22.3742 29.438 22.7099 29.1022 22.7099 28.688C22.7099 28.2738 22.3742 27.938 21.9599 27.938Z" fill="#6382FF"/>
<path d="M11.552 15.5901H11.372C11.066 15.5901 10.824 15.3811 10.705 15.0991C10.513 14.6461 10.063 14.3271 9.54101 14.3271C9.01901 14.3271 8.57001 14.6461 8.37801 15.0991C8.25901 15.3811 8.01701 15.5901 7.71101 15.5901H7.55201C7.05901 15.5901 6.70301 15.0941 6.88101 14.6351C7.29101 13.5811 8.35301 12.8271 9.54101 12.8271C10.729 12.8271 11.804 13.5791 12.222 14.6311C12.404 15.0901 12.046 15.5901 11.552 15.5901Z" fill="#6382FF"/>
<path d="M25.8989 11.501H25.7009C24.2049 11.501 22.9099 10.538 22.4799 9.10498L19.7469 0.000976562H23.0739C25.0109 0.000976562 26.7279 1.16298 27.4489 2.96298L29.0209 6.88998C29.4359 7.92698 29.3099 9.09898 28.6839 10.024C28.0579 10.949 27.0169 11.502 25.8989 11.502V11.501ZM21.7639 1.50098L23.9169 8.67398C24.1549 9.46798 24.8729 10.001 25.7009 10.001H25.8989C26.5269 10.001 27.0889 9.70298 27.4409 9.18298C27.7929 8.66298 27.8609 8.03098 27.6279 7.44698L26.0559 3.51998C25.5649 2.29398 24.3939 1.50098 23.0739 1.50098H21.7639Z" fill="#6382FF"/>
<path d="M20.2449 11.501H20.1199C18.3859 11.501 16.9469 10.2 16.7739 8.47498L15.9259 0.000976562H21.3129L23.4649 7.17198C23.7739 8.20098 23.5829 9.28398 22.9419 10.146C22.3009 11.007 21.3189 11.501 20.2449 11.501ZM17.5839 1.50098L18.2669 8.32498C18.3629 9.27998 19.1599 10.001 20.1209 10.001H20.2459C20.8409 10.001 21.3859 9.72798 21.7409 9.24998C22.0959 8.77298 22.2009 8.17298 22.0309 7.60398L20.1989 1.50098H17.5859H17.5839Z" fill="#6382FF"/>
<path d="M14.8689 11.501H14.6409C13.6929 11.501 12.7839 11.098 12.1479 10.395C11.5119 9.69198 11.2009 8.74898 11.2949 7.80498L12.0759 0.000976562H17.4329L18.2139 7.80498C18.3089 8.74798 17.9979 9.69198 17.3609 10.395C16.7239 11.098 15.8159 11.501 14.8679 11.501H14.8689ZM13.4339 1.50098L12.7879 7.95298C12.7349 8.48298 12.9029 8.99298 13.2599 9.38798C13.6179 9.78398 14.1079 10.001 14.6409 10.001H14.8689C15.4019 10.001 15.8919 9.78298 16.2499 9.38798C16.6069 8.99298 16.7749 8.48398 16.7219 7.95298L16.0759 1.50098H13.4329H13.4339Z" fill="#6382FF"/>
<path d="M9.39089 11.501H8.94089C7.92889 11.501 6.98189 11.053 6.33989 10.271C5.69789 9.48898 5.44489 8.47098 5.64289 7.47898L7.13989 0.000976562H13.5839L12.7359 8.47398C12.5629 10.201 11.1249 11.501 9.38989 11.501H9.39089ZM8.36989 1.50098L7.11489 7.77298C7.00489 8.32198 7.14589 8.88598 7.50089 9.31898C7.85589 9.75298 8.38089 10.001 8.94089 10.001H9.39089C10.3519 10.001 11.1489 9.27998 11.2449 8.32398L11.9279 1.50098H8.37089H8.36989Z" fill="#6382FF"/>
<path d="M3.6119 11.501C2.4939 11.501 1.4529 10.948 0.826904 10.023C0.200904 9.098 0.0749039 7.926 0.489904 6.889L2.0619 2.962C2.7819 1.162 4.4999 0 6.4369 0H8.6699L6.9089 8.798C6.5959 10.363 5.2099 11.5 3.6119 11.5V11.501ZM6.4369 1.501C5.1169 1.501 3.9459 2.294 3.4549 3.52L1.8829 7.447C1.6499 8.031 1.7169 8.663 2.0699 9.183C2.4229 9.703 2.9849 10.001 3.6129 10.001C4.4979 10.001 5.2659 9.371 5.4389 8.505L6.8399 1.501H6.4369Z" fill="#6382FF"/>
<path d="M2.93396 15.7488C2.51996 15.7488 2.18396 15.4128 2.18396 14.9988V10.4058H3.68396V14.9988C3.68396 15.4128 3.34796 15.7488 2.93396 15.7488Z" fill="#6382FF"/>
<path d="M26.5769 15.7488C26.1629 15.7488 25.8269 15.4128 25.8269 14.9988V10.4058H27.3269V14.9988C27.3269 15.4128 26.9909 15.7488 26.5769 15.7488Z" fill="#6382FF"/>
<path d="M26.75 26.5142H23.5C23.086 26.5142 22.75 26.1782 22.75 25.7642C22.75 25.3502 23.086 25.0142 23.5 25.0142H26.75C27.44 25.0142 28 24.4542 28 23.7642V19.7642C28 19.0742 27.44 18.5142 26.75 18.5142H23.5C23.086 18.5142 22.75 18.1782 22.75 17.7642C22.75 17.3502 23.086 17.0142 23.5 17.0142H26.75C28.269 17.0142 29.5 18.2452 29.5 19.7642V23.7642C29.5 25.2832 28.269 26.5142 26.75 26.5142Z" fill="#6382FF"/>
<path d="M19.758 26.5142H2.75C1.234 26.5142 0 25.2812 0 23.7642V19.7642C0 18.2472 1.234 17.0142 2.75 17.0142H19.71V18.5142H2.75C2.061 18.5142 1.5 19.0752 1.5 19.7642V23.7642C1.5 24.4532 2.061 25.0142 2.75 25.0142H19.758V26.5142Z" fill="#6382FF"/>
<path d="M20.5039 14.7642H19.0039V28.7642H20.5039V14.7642Z" fill="#6382FF"/>
</svg>
