<svg width="23" height="22" viewBox="0 0 23 22" fill="none" xmlns="http://www.w3.org/2000/svg">
<path d="M20.5789 2.44444H1.21053V0H20.5789V2.44444ZM12.1053 14.0556C12.1053 15.4489 12.6258 16.94 13.3158 18.3333V19.5556H1.21053V12.2222H0V9.77778L1.21053 3.66667H20.5789L21.4263 7.94444C20.5789 7.55333 19.7074 7.33333 18.7632 7.33333C15.1316 7.33333 12.1053 10.3889 12.1053 14.0556ZM10.8947 12.2222H3.63158V17.1111H10.8947V12.2222ZM23 14.0556C23 17.2333 18.7632 22 18.7632 22C18.7632 22 14.5263 17.2333 14.5263 14.0556C14.5263 11.7333 16.4632 9.77778 18.7632 9.77778C21.0632 9.77778 23 11.7333 23 14.0556ZM20.2158 14.1778C20.2158 13.4444 19.4895 12.7111 18.7632 12.7111C18.0368 12.7111 17.3105 13.3222 17.3105 14.1778C17.3105 14.9111 17.9158 15.6444 18.7632 15.6444C19.6105 15.6444 20.3368 14.9111 20.2158 14.1778Z" fill="#809FB8"/>
</svg>
