<svg width="64" height="64" viewBox="0 0 64 64" fill="none" xmlns="http://www.w3.org/2000/svg">
<path d="M13.3 35.2C13.3 28.6 13.3 21.9 13.3 15.3C13.3 13.6 14.4 12.2 16.1 11.9C16.2 11.9 16.4 11.9 16.5 11.9C17.8 11.9 19.1 11.9 20.4 11.9C20.9 11.9 21.4 12.2 21.5 12.7C21.6 13.2 21.4 13.7 21 14C20.8 14.1 20.5 14.2 20.3 14.2C19.2 14.2 18 14.2 16.9 14.2C16.7 14.2 16.5 14.2 16.3 14.3C15.9 14.4 15.6 14.8 15.6 15.3C15.6 15.4 15.6 15.5 15.6 15.6C15.6 28.8 15.6 42 15.6 55.2C15.6 55.9 16.1 56.4 16.8 56.4C25.9 56.4 35.1 56.4 44.2001 56.4C44.9001 56.4 45.5001 55.9 45.4001 55.2C45.4001 54.3 45.4001 53.5 45.4001 52.6C45.4001 51.8 45.9 51.3 46.6 51.4C47.2 51.4 47.7001 51.9 47.7001 52.5C47.7001 53.6 47.7001 54.6 47.7001 55.7C47.6001 57.2 46.3 58.6 44.8 58.8C44.6 58.8 44.3 58.8 44.1 58.8C35 58.8 25.9 58.8 16.8 58.8C15.3 58.8 14.1 58 13.5 56.6C13.3 56.2 13.3 55.8 13.3 55.3C13.3 48.5 13.3 41.8 13.3 35.2Z" fill="#FF7203"/>
<path d="M57.2001 37.2C57.2001 38.8 56.5 40.3 55.3 41.6C53.9 43 52.5 44.4 51.1 45.8C49.9 47 48.8 48.1 47.6 49.3C47.1 49.8 46.4001 49.8 45.9001 49.3C45.3001 48.7 44.7001 48.2 44.2001 47.6C42.2001 45.6 40.1 43.5 38.1 41.5C36.9 40.3 36.3 38.8 36.3 37C36.3 33.8 38.8001 31 41.9001 30.7C43.6001 30.5 45.2 30.9 46.5 31.9C46.7 32 46.8 32 47 31.9C49.9 29.7 53.9 30.4 56 33.3C56.8 34.5 57.1001 35.7 57.2001 37.2ZM54.9001 37.2C54.9001 35.8 54.4 34.7 53.5 33.9C52.1 32.7 50 32.5 48.5 33.6C48.1 33.9 47.8 34.2 47.5 34.5C47 34.9 46.4 34.9 46 34.5C45.8 34.3 45.7 34.2 45.5 34C44.5 33.1 43.4 32.7 42.1 32.9C40.5 33.2 39.3 34.1 38.8 35.7C38.3 37.2 38.7 38.6 39.8 39.8C40.2 40.2 40.6 40.6 41 41C42.9 42.9 44.7 44.7 46.6 46.6C46.7 46.7 46.8 46.7 47 46.6C47.7 45.9 48.4 45.2 49.1 44.5C50.6 43 52 41.6 53.5 40.1C54.3 39.3 54.9001 38.3 54.9001 37.2Z" fill="#FF7203"/>
<path d="M30.6001 17.5C28.8001 17.5 27.0001 17.5 25.1001 17.5C24.1001 17.5 23.4001 16.9 23.2001 16C23.2001 15.8 23.1001 15.6 23.1001 15.4C23.1001 13.8 23.1001 12.2 23.1001 10.6C23.1001 10 23.3001 9.5 23.6001 9.1C24.0001 8.7 24.5001 8.5 25.0001 8.5C28.7001 8.5 32.4001 8.5 36.1001 8.5C37.2001 8.5 38.0001 9.3 38.0001 10.5C38.0001 12.2 38.0001 13.8 38.0001 15.5C38.0001 16.7 37.2001 17.5 36.0001 17.5C34.2001 17.5 32.4001 17.5 30.6001 17.5ZM30.6001 10.8C29.0001 10.8 27.3001 10.8 25.7001 10.8C25.5001 10.8 25.4001 10.9 25.4001 11.1C25.4001 12.4 25.4001 13.6 25.4001 14.9C25.4001 15.1 25.5001 15.2 25.7001 15.2C29.0001 15.2 32.2001 15.2 35.5001 15.2C35.7001 15.2 35.8001 15.1 35.8001 14.9C35.8001 13.6 35.8001 12.4 35.8001 11.1C35.8001 10.8 35.7001 10.8 35.5001 10.8C33.8001 10.8 32.2001 10.8 30.6001 10.8Z" fill="#FF7203"/>
<path d="M47.8001 21.9C47.8001 24.2 47.8001 26.4 47.8001 28.7C47.8001 29.6 46.9001 30.1 46.2001 29.8C45.8001 29.6 45.6001 29.2 45.6001 28.8C45.6001 28.7 45.6001 28.6 45.6001 28.5C45.6001 24.2 45.6001 19.8 45.6001 15.5C45.6001 14.6 45.0001 14.2 44.3001 14.2C43.1001 14.2 42.0001 14.2 40.8001 14.2C40.2001 14.2 39.8001 13.8 39.7001 13.3C39.6001 12.8 39.9001 12.2 40.4001 12C40.6001 11.9 40.7001 11.9 40.9001 11.9C42.2001 11.9 43.5001 11.9 44.7001 11.9C46.5001 11.9 48.0001 13.4 48.0001 15.2C47.8001 17.4 47.8001 19.6 47.8001 21.9Z" fill="#FF7203"/>
<path d="M30.6001 25.2C27.2001 25.2 23.8001 25.2 20.4001 25.2C19.8001 25.2 19.3001 24.8 19.2001 24.3C19.1001 23.7 19.6001 23 20.2001 23C20.3001 23 20.4001 23 20.5001 23C27.3001 23 34.0001 23 40.8001 23C41.4001 23 41.8001 23.2 42.0001 23.7C42.3001 24.4 41.8001 25.2 41.0001 25.2C39.5001 25.2 38.1001 25.2 36.6001 25.2C34.5001 25.2 32.5001 25.2 30.6001 25.2Z" fill="#FF7203"/>
<path d="M27.3001 29.2C29.6001 29.2 31.9001 29.2 34.2001 29.2C35.1001 29.2 35.6001 30 35.3001 30.8C35.1001 31.2 34.8001 31.4 34.3001 31.5C34.2001 31.5 34.1001 31.5 34.1001 31.5C29.6001 31.5 25.0001 31.5 20.5001 31.5C20.1001 31.5 19.8001 31.4 19.5001 31.1C19.2001 30.7 19.1001 30.3 19.3001 29.9C19.5001 29.4 19.8001 29.2 20.3001 29.2C20.7001 29.2 21.1001 29.2 21.6001 29.2C23.4001 29.2 25.3001 29.2 27.3001 29.2Z" fill="#FF7203"/>
<path d="M27.2001 44.1C24.9001 44.1 22.7001 44.1 20.4001 44.1C19.7001 44.1 19.3001 43.8 19.1001 43.2C18.9001 42.5 19.4001 41.8 20.1001 41.8C20.2001 41.8 20.2001 41.8 20.3001 41.8C24.9001 41.8 29.5001 41.8 34.1001 41.8C34.5001 41.8 34.9001 41.9 35.1001 42.3C35.6001 43.1 35.1001 44 34.1001 44.1C33.6001 44.1 33.2001 44.1 32.7001 44.1C30.9001 44.1 29.1001 44.1 27.2001 44.1Z" fill="#FF7203"/>
<path d="M26.0001 37.8C24.1001 37.8 22.2001 37.8 20.3001 37.8C19.7001 37.8 19.3001 37.5 19.2001 36.9C19.1001 36.3 19.5001 35.7 20.1001 35.5C20.3001 35.5 20.4001 35.5 20.6001 35.5C24.2001 35.5 27.9001 35.5 31.5001 35.5C31.8001 35.5 32.0001 35.5 32.3001 35.6C32.8001 35.9 33.0001 36.4 32.9001 36.9C32.8001 37.4 32.3001 37.8 31.8001 37.8C29.8001 37.8 27.9001 37.8 26.0001 37.8Z" fill="#FF7203"/>
<path d="M25.3 50.4C23.7 50.4 22 50.4 20.4 50.4C19.6 50.4 19 49.7 19.3 48.9C19.4 48.4 19.9 48.1 20.4 48.1C21 48.1 21.7 48.1 22.3 48.1C24.9 48.1 27.5 48.1 30.1 48.1C30.5 48.1 30.9 48.2 31.2 48.6C31.5 49 31.5 49.4 31.3 49.8C31.1 50.2 30.7 50.4 30.3 50.4C28.6 50.4 26.9 50.4 25.3 50.4Z" fill="#FF7203"/>
<path d="M30.6001 14.1C29.6001 14.1 28.6001 14.1 27.6001 14.1C26.9001 14.1 26.4001 13.6 26.4001 13C26.4001 12.3 26.9001 11.9 27.6001 11.9C29.6001 11.9 31.6001 11.9 33.5001 11.9C34.2001 11.9 34.7001 12.4 34.7001 13C34.7001 13.6 34.2001 14.1 33.5001 14.1C32.6001 14.1 31.6001 14.1 30.6001 14.1Z" fill="#FF7203"/>
</svg>
